<?xml version="1.0" standalone="no"?>
<!DOCTYPE svg PUBLIC "-//W3C//DTD SVG 20010904//EN"
 "http://www.w3.org/TR/2001/REC-SVG-20010904/DTD/svg10.dtd">
<svg version="1.0" xmlns="http://www.w3.org/2000/svg"
 width="512.000000pt" height="512.000000pt" viewBox="0 0 512.000000 512.000000"
 preserveAspectRatio="xMidYMid meet">
<metadata>
Created by potrace 1.11, written by Peter Selinger 2001-2013
</metadata>
<g transform="translate(0.000000,512.000000) scale(0.100000,-0.100000)"
fill="#000000" stroke="none">
<path d="M1593 3694 c-7 -3 -13 -10 -13 -16 0 -6 6 -6 15 2 10 9 15 9 15 1 0
-6 -5 -11 -11 -11 -5 0 -7 -6 -3 -12 4 -7 -2 -5 -14 6 -21 18 -21 18 -17 -3 3
-16 -1 -21 -18 -21 -18 0 -19 -2 -7 -11 12 -9 11 -10 -7 -6 -17 4 -23 0 -25
-17 -2 -14 -9 -20 -20 -18 -11 2 -18 -3 -18 -12 0 -9 -6 -13 -14 -10 -8 3 -17
0 -22 -7 -4 -8 -3 -10 4 -5 7 4 12 3 12 -1 0 -5 -9 -14 -20 -20 -17 -11 -18
-10 -13 4 6 15 5 16 -9 3 -11 -11 -13 -19 -6 -28 8 -9 7 -11 -7 -6 -13 5 -16
4 -11 -5 6 -8 2 -11 -10 -9 -12 2 -18 -2 -16 -11 2 -9 -3 -11 -14 -7 -15 6
-15 4 -3 -11 8 -9 9 -14 3 -10 -7 4 -19 -4 -29 -19 -13 -20 -19 -23 -30 -14
-10 8 -15 8 -21 -1 -5 -8 -3 -9 6 -4 9 6 11 4 6 -4 -5 -7 -15 -10 -23 -7 -9 4
-11 2 -7 -6 5 -8 1 -9 -12 -4 -10 4 -15 4 -11 0 4 -4 1 -14 -6 -23 -11 -14
-10 -15 8 -1 19 14 19 14 6 -3 -8 -10 -21 -15 -29 -12 -9 3 -12 0 -9 -9 4 -10
0 -14 -14 -11 -11 2 -17 0 -13 -6 7 -12 -15 -41 -27 -33 -5 3 -9 0 -9 -5 0 -6
-5 -11 -11 -11 -5 0 -7 5 -3 12 5 7 3 8 -5 4 -7 -5 -10 -15 -7 -23 5 -11 2
-13 -10 -9 -15 6 -15 4 -3 -11 8 -9 9 -14 2 -10 -6 4 -22 -5 -35 -22 -19 -22
-29 -26 -41 -19 -13 7 -17 5 -17 -9 0 -10 -5 -25 -11 -33 -8 -12 -9 -10 -4 8
4 13 2 22 -4 22 -6 0 -10 -3 -10 -7 3 -20 -2 -34 -11 -28 -5 3 -11 1 -11 -4
-1 -6 -2 -15 -3 -20 0 -5 -5 -13 -10 -18 -5 -5 -6 -3 -2 5 4 6 2 12 -3 12 -6
0 -11 -8 -11 -17 0 -13 -3 -14 -12 -5 -18 18 -40 -5 -27 -29 12 -24 6 -24 -17
-1 -17 16 -18 16 -11 -2 5 -14 4 -17 -8 -12 -8 3 -15 1 -15 -3 0 -5 6 -12 13
-14 6 -3 -2 -8 -20 -12 -23 -5 -30 -11 -26 -23 4 -10 2 -13 -5 -8 -7 4 -12 1
-12 -9 0 -9 -4 -14 -10 -10 -5 3 -7 13 -4 23 5 14 4 14 -4 2 -6 -8 -9 -17 -7
-21 3 -3 -8 -12 -22 -18 -22 -10 -24 -14 -12 -22 11 -8 10 -9 -6 -7 -27 3 -45
-9 -39 -27 4 -10 0 -13 -15 -10 -11 2 -24 -1 -27 -7 -4 -7 -2 -8 4 -4 7 4 12
2 12 -3 0 -6 -7 -11 -17 -11 -9 0 -13 -3 -10 -7 12 -11 -44 -62 -61 -56 -11 5
-13 3 -7 -8 7 -12 6 -12 -7 -1 -10 8 -19 9 -22 3 -4 -5 1 -14 10 -19 15 -8 14
-11 -6 -25 -23 -16 -25 -64 -2 -59 8 1 11 -2 7 -8 -3 -6 -10 -8 -15 -5 -4 3
-8 -33 -8 -80 1 -76 3 -84 17 -73 11 9 10 6 -2 -9 -20 -23 -19 -70 1 -65 8 1
11 -2 7 -8 -3 -6 -10 -8 -14 -6 -4 3 -9 -15 -9 -40 -2 -34 1 -43 10 -38 10 6
10 4 2 -7 -16 -21 -18 -82 -2 -73 10 6 11 4 1 -7 -7 -7 -13 -19 -13 -27 0 -12
3 -12 18 -1 14 11 13 10 -2 -9 -17 -20 -15 -27 7 -23 5 1 6 -3 2 -9 -3 -6 -10
-8 -15 -5 -4 3 -8 -33 -8 -80 1 -76 3 -84 17 -73 11 9 10 6 -2 -9 -20 -23 -19
-70 1 -65 8 1 11 -2 7 -8 -3 -6 -10 -8 -15 -5 -4 3 -8 -33 -8 -80 1 -76 3 -84
17 -73 12 10 11 7 -2 -8 -24 -29 -22 -170 2 -151 12 8 11 6 -1 -9 -14 -16 -17
-38 -16 -102 0 -45 5 -82 10 -82 4 0 8 -5 8 -11 0 -5 -5 -7 -12 -3 -6 4 -8 3
-5 -4 4 -5 16 -8 27 -5 12 3 20 0 20 -6 0 -7 -5 -9 -12 -5 -6 4 -8 3 -5 -3 7
-11 116 -11 135 0 7 5 9 13 6 19 -4 7 -2 8 4 4 6 -4 9 -12 6 -20 -7 -18 27
-17 49 2 16 14 17 14 12 1 -5 -14 13 -16 137 -15 120 1 143 4 140 16 -2 13 0
13 10 0 16 -20 50 -20 56 0 4 12 3 13 -10 2 -13 -10 -18 -9 -29 5 -12 16 -12
17 2 6 12 -10 18 -10 28 0 9 9 13 7 17 -11 4 -12 11 -19 16 -16 5 3 7 13 4 21
-4 8 -1 11 5 8 6 -4 8 -14 5 -22 -4 -9 -1 -13 6 -10 7 2 12 11 10 18 -2 11 1
11 10 -1 19 -22 41 -24 55 -4 12 17 13 17 13 0 0 -9 4 -15 10 -11 5 3 7 13 4
23 -5 14 -4 14 4 2 6 -8 9 -17 7 -20 -2 -4 19 -6 48 -5 39 1 51 5 49 16 -2 11
0 11 10 -1 16 -20 50 -20 56 0 4 12 3 13 -10 2 -13 -10 -18 -9 -29 5 -12 16
-12 17 2 6 12 -10 18 -10 28 0 9 9 13 7 17 -11 4 -12 11 -19 16 -16 5 3 7 13
4 21 -4 8 -1 11 5 8 6 -4 8 -14 5 -22 -4 -9 -1 -13 6 -10 7 2 12 11 10 18 -2
11 1 11 10 -1 19 -22 41 -24 55 -4 12 17 13 17 13 0 0 -9 4 -15 10 -11 5 3 7
13 4 23 -5 14 -4 14 4 2 6 -8 9 -17 7 -21 -6 -9 248 -5 263 4 7 5 9 13 6 19
-4 7 -2 8 4 4 6 -4 9 -12 6 -20 -7 -18 27 -17 49 2 14 12 20 13 30 3 9 -10 8
-11 -5 -6 -10 4 -18 3 -18 -2 0 -13 32 -13 47 -1 7 6 10 15 6 21 -3 6 -1 7 5
3 6 -4 9 -12 6 -20 -7 -18 27 -17 49 2 16 14 17 14 12 1 -5 -14 13 -16 137
-15 120 1 143 4 140 16 -2 13 -1 13 10 0 18 -20 37 -23 56 -8 9 7 13 8 9 2 -3
-6 0 -11 7 -11 8 0 12 10 10 24 -2 18 2 23 11 19 8 -3 17 0 21 6 4 7 3 8 -4 4
-7 -4 -12 -1 -12 8 0 10 6 13 15 10 8 -4 15 -1 15 5 0 6 -3 10 -7 10 -27 -4
-33 2 -23 20 14 28 13 54 -2 45 -10 -6 -10 -4 0 7 6 7 12 17 12 22 0 4 -6 5
-12 1 -10 -6 -10 -4 0 8 10 13 10 17 -3 21 -9 4 -12 13 -8 24 6 16 5 16 -10 4
-15 -12 -20 -11 -38 5 -11 10 -20 14 -19 9 4 -20 -1 -30 -8 -18 -5 7 -21 14
-38 15 -16 1 -35 6 -43 12 -11 8 -13 8 -8 0 4 -7 -1 -18 -10 -25 -14 -12 -16
-12 -8 0 6 11 4 13 -11 7 -35 -15 -66 -15 -61 -1 4 9 -1 11 -14 8 -10 -3 -17
-9 -14 -12 2 -4 -2 -8 -10 -8 -8 0 -12 3 -10 7 2 3 -5 12 -17 19 -12 7 -17 8
-13 1 4 -7 -2 -9 -19 -6 -14 3 -28 1 -31 -4 -3 -5 3 -7 15 -5 11 2 22 1 24 -3
3 -4 -15 -8 -39 -7 -24 0 -41 3 -38 8 6 10 -5 9 -28 -4 -16 -8 -25 -7 -41 7
-11 10 -19 14 -18 9 4 -21 -1 -29 -9 -16 -9 14 -99 22 -107 9 -3 -4 4 -5 16
-3 11 2 22 1 24 -3 3 -4 -15 -8 -39 -7 -24 0 -41 4 -37 9 3 6 -3 6 -14 2 -35
-15 -66 -15 -61 -1 4 9 -1 11 -14 8 -10 -3 -17 -9 -14 -12 2 -4 -2 -8 -10 -8
-8 0 -12 4 -9 9 3 4 2 8 -3 9 -47 4 -82 4 -81 0 2 -18 -3 -24 -10 -14 -5 7
-21 14 -38 15 -16 1 -35 6 -43 12 -12 9 -13 8 -7 -2 7 -11 1 -13 -27 -9 -20 3
-36 2 -35 -2 2 -17 -3 -25 -10 -14 -5 7 -21 14 -38 15 -16 1 -35 6 -43 12 -12
9 -13 8 -7 -2 7 -11 1 -13 -27 -9 -20 3 -36 2 -35 -2 2 -17 -3 -25 -10 -14 -5
7 -21 14 -38 15 -16 1 -35 6 -43 12 -12 9 -13 8 -7 -2 7 -11 1 -13 -27 -9 -20
3 -36 2 -35 -2 2 -17 -3 -25 -10 -14 -5 7 -21 14 -38 15 -16 1 -35 6 -43 12
-11 8 -13 8 -8 0 4 -7 -1 -18 -10 -25 -14 -12 -16 -12 -8 0 6 11 4 13 -11 7
-35 -15 -66 -15 -61 -1 4 9 -1 11 -14 8 -10 -3 -17 -9 -14 -12 2 -4 -2 -8 -10
-8 -8 0 -12 4 -9 8 7 12 -19 17 -45 7 -13 -5 -26 -6 -29 -3 -3 3 0 5 6 5 7 0
12 5 12 10 0 6 -5 9 -11 8 -6 -2 -12 9 -13 24 -1 19 2 24 10 18 7 -7 11 -5 11
5 0 8 -6 15 -13 15 -7 0 -15 4 -18 9 -3 5 1 8 10 7 10 0 18 8 20 24 3 18 2 21
-5 10 -5 -8 -7 -18 -5 -22 3 -4 -3 -5 -12 -1 -11 4 -13 8 -6 11 7 2 12 10 12
18 0 8 6 14 13 14 9 0 9 2 -1 9 -8 4 -15 22 -16 39 -1 22 1 29 9 22 8 -7 12
-5 12 5 0 8 -6 15 -14 15 -7 0 -13 5 -13 11 0 6 6 9 14 6 15 -6 16 17 1 30 -4
4 -5 3 -2 -3 3 -6 0 -11 -8 -11 -11 0 -12 4 -4 13 7 8 6 14 -3 17 -10 4 -10 6
1 6 11 1 11 4 0 19 -12 15 -12 16 2 5 9 -7 19 -10 23 -6 4 4 -4 13 -16 20 -13
7 -17 12 -10 13 6 0 12 7 12 15 0 8 6 15 13 15 9 0 9 2 -1 9 -8 4 -15 22 -16
39 -1 22 1 29 9 22 8 -7 12 -5 12 5 0 8 -6 15 -13 15 -7 0 -16 4 -19 10 -4 6
1 7 12 3 14 -5 16 -4 7 8 -5 8 -9 20 -8 27 1 6 2 17 3 23 0 5 4 8 9 6 4 -3 7
8 7 23 1 16 -3 26 -7 24 -4 -3 -8 2 -8 11 0 9 4 14 8 11 4 -2 8 5 8 16 0 19
-1 19 -18 -2 -21 -26 -24 -14 -3 14 8 10 12 23 9 28 -9 14 -12 58 -5 58 4 0
13 -6 20 -12 11 -11 12 -10 5 2 -5 8 -9 18 -9 22 0 3 -4 10 -9 15 -5 4 -7 3
-3 -3 3 -6 0 -11 -8 -11 -11 0 -12 4 -4 13 7 8 6 14 -3 17 -10 4 -10 6 1 6 11
1 11 4 0 19 -12 15 -12 16 2 5 9 -7 19 -10 23 -6 4 4 -4 13 -16 20 -13 7 -17
12 -10 13 6 0 12 7 12 15 0 8 6 15 13 15 9 0 9 2 -1 9 -8 4 -15 22 -16 39 -1
22 1 29 9 22 8 -7 12 -5 12 5 0 8 -7 15 -16 15 -11 0 -11 3 5 16 18 14 18 15
-6 10 -14 -3 -20 -3 -13 0 7 3 9 13 6 22 -3 10 -1 13 4 7 13 -15 30 -15 30 0
0 8 -5 12 -11 9 -6 -3 -3 1 6 9 10 8 15 17 12 20 -3 3 4 3 17 0 19 -5 21 -3
17 15 -3 12 -3 21 1 20 21 -2 31 3 25 15 -5 7 0 6 11 -3 13 -10 16 -11 11 -2
-6 9 -3 12 10 10 13 -2 19 3 19 17 0 14 7 20 21 19 16 0 20 5 18 22 -1 15 2
21 10 18 7 -3 18 5 24 18 l12 23 -6 -22 c-3 -15 -1 -23 7 -23 7 0 9 3 6 7 -4
3 -2 12 4 20 6 7 8 13 4 13 -4 0 10 14 31 31 21 16 46 28 55 26 13 -4 16 1 14
19 -2 21 0 22 13 12 13 -11 14 -11 7 1 -6 11 -3 13 14 8 22 -5 22 -5 5 14 -15
16 -15 19 -2 14 9 -4 19 -1 23 5 4 6 16 8 28 5 12 -4 18 -3 12 2 -5 4 -11 17
-13 28 -2 15 0 17 6 6 7 -9 11 -10 17 -2 5 9 11 9 23 -1 15 -12 16 -11 4 4
-15 19 -8 38 14 38 9 0 13 5 9 13 -4 6 1 3 11 -8 14 -17 16 -17 11 -2 -6 16 3
22 26 18 5 -1 6 3 2 8 -3 6 -13 8 -23 5 -14 -5 -14 -4 -3 4 8 6 21 8 29 4 10
-3 13 -1 8 6 -4 7 -1 12 8 12 9 0 16 5 16 11 0 5 -6 7 -12 3 -8 -4 -10 -3 -5
2 5 5 18 9 30 9 36 1 50 14 35 33 -10 12 -10 14 0 8 6 -4 12 -2 12 3 0 6 4 11
10 11 5 0 7 -8 5 -17 -3 -10 2 -3 10 15 8 17 18 32 21 32 3 0 3 -4 0 -8 -3 -5
1 -9 9 -9 11 0 12 5 3 21 -10 19 -10 20 5 7 17 -13 22 -7 18 21 0 4 8 5 19 3
13 -3 17 1 13 11 -3 10 0 12 10 8 8 -3 18 0 23 7 4 7 3 10 -3 6 -5 -3 -10 0
-10 8 0 10 6 11 24 4 22 -8 23 -7 13 12 -10 18 -10 19 8 10 23 -12 33 -5 25
17 -4 10 -2 13 5 8 7 -4 20 -2 29 4 14 9 14 10 2 7 -9 -3 -16 1 -16 8 0 7 8
12 18 10 11 -2 19 4 23 18 5 21 5 21 27 1 22 -19 22 -19 11 2 -13 24 -7 35 14
27 8 -3 21 0 28 7 11 8 20 9 36 0 15 -8 25 -8 34 -1 9 8 13 7 13 -4 0 -8 -3
-12 -7 -10 -4 2 -7 -2 -7 -10 0 -11 4 -12 14 -4 10 9 13 8 13 -2 0 -9 3 -10 8
-4 8 12 22 13 39 2 6 -4 14 -3 17 2 8 12 -4 19 -26 16 -11 -2 -15 2 -11 11 6
17 19 18 29 3 3 -6 15 -9 25 -6 22 6 47 -18 27 -26 -8 -3 -8 -6 -2 -6 6 -1 18
7 25 16 12 14 12 16 0 8 -9 -5 -12 -4 -8 3 4 5 17 8 30 5 18 -4 19 -3 7 6 -8
6 -10 11 -4 11 6 0 17 -7 24 -16 8 -8 9 -14 4 -13 -20 3 -34 -2 -34 -12 0 -8
5 -8 15 1 8 7 15 9 15 5 0 -4 7 -2 15 5 11 9 15 9 15 1 0 -7 5 -9 11 -5 8 5 7
9 -1 14 -7 4 -10 15 -7 23 3 8 0 21 -6 28 -10 10 -8 10 6 0 22 -18 32 -9 18
17 -8 15 -8 22 2 25 9 4 9 6 0 6 -7 1 -13 5 -13 11 0 5 8 7 18 4 9 -3 6 2 -8
10 -20 12 -22 15 -7 16 10 0 15 5 12 10 -4 6 -10 8 -14 6 -3 -3 -7 4 -7 14 0
18 1 18 20 2 18 -16 18 -16 5 6 -8 12 -17 22 -22 22 -4 0 -5 5 -2 10 4 6 11 7
17 4 6 -4 8 -2 4 4 -7 11 -458 16 -483 6z m-203 -488 c0 -3 -4 -8 -10 -11 -5
-3 -10 -1 -10 4 0 6 5 11 10 11 6 0 10 -2 10 -4z m-493 -111 c0 -8 -4 -12 -9
-9 -5 3 -6 10 -3 15 9 13 12 11 12 -6z m-197 -165 c0 -5 -5 -10 -11 -10 -5 0
-7 5 -4 10 3 6 8 10 11 10 2 0 4 -4 4 -10z m50 -690 c-12 -22 -21 -26 -17 -7
2 10 17 26 25 27 1 0 -2 -9 -8 -20z m235 -580 c3 -5 1 -10 -4 -10 -6 0 -11 5
-11 10 0 6 2 10 4 10 3 0 8 -4 11 -10z m40 -8 c-3 -3 -11 0 -18 7 -9 10 -8 11
6 5 10 -3 15 -9 12 -12z m80 0 c-3 -3 -11 0 -18 7 -9 10 -8 11 6 5 10 -3 15
-9 12 -12z m40 8 c3 -5 1 -10 -4 -10 -6 0 -11 5 -11 10 0 6 2 10 4 10 3 0 8
-4 11 -10z m40 -8 c-3 -3 -11 0 -18 7 -9 10 -8 11 6 5 10 -3 15 -9 12 -12z
m80 0 c-3 -3 -11 0 -18 7 -9 10 -8 11 6 5 10 -3 15 -9 12 -12z m40 8 c3 -5 1
-10 -4 -10 -6 0 -11 5 -11 10 0 6 2 10 4 10 3 0 8 -4 11 -10z m40 -8 c-3 -3
-11 0 -18 7 -9 10 -8 11 6 5 10 -3 15 -9 12 -12z m80 0 c-3 -3 -11 0 -18 7 -9
10 -8 11 6 5 10 -3 15 -9 12 -12z m40 8 c3 -5 1 -10 -4 -10 -6 0 -11 5 -11 10
0 6 2 10 4 10 3 0 8 -4 11 -10z m40 -8 c-3 -3 -11 0 -18 7 -9 10 -8 11 6 5 10
-3 15 -9 12 -12z m80 0 c-3 -3 -11 0 -18 7 -9 10 -8 11 6 5 10 -3 15 -9 12
-12z m680 8 c3 -5 1 -10 -4 -10 -6 0 -11 5 -11 10 0 6 2 10 4 10 3 0 8 -4 11
-10z m40 -8 c-3 -3 -11 0 -18 7 -9 10 -8 11 6 5 10 -3 15 -9 12 -12z m-1412
-206 c3 3 13 2 22 -3 13 -8 10 -10 -14 -10 -17 0 -33 7 -36 15 -4 12 -2 12 8
4 8 -7 16 -9 20 -6z m83 -5 c2 -8 1 -8 -3 0 -4 8 -7 8 -13 -1 -5 -9 -9 -8 -13
3 -4 10 0 14 11 13 9 -2 17 -8 18 -15z m323 -4 c0 -9 -2 -8 -6 1 -2 6 -10 9
-15 6 -7 -4 -8 -2 -4 5 9 13 26 5 25 -12z m394 9 c3 3 13 2 22 -3 13 -8 10
-10 -14 -10 -17 0 -33 7 -36 15 -4 12 -2 12 8 4 8 -7 16 -9 20 -6z m67 -1 c7
-9 8 -15 2 -15 -5 0 -12 7 -16 15 -3 8 -4 15 -2 15 2 0 9 -7 16 -15z m413 1
c3 3 13 2 22 -3 13 -8 10 -10 -14 -10 -17 0 -33 7 -36 15 -4 12 -2 12 8 4 8
-7 16 -9 20 -6z m83 -5 c2 -8 1 -8 -3 0 -4 8 -7 8 -13 -1 -5 -9 -9 -8 -13 3
-4 10 0 14 11 13 9 -2 17 -8 18 -15z m104 -3 c0 -6 -6 -5 -15 2 -8 7 -15 14
-15 16 0 2 7 1 15 -2 8 -4 15 -11 15 -16z m-1706 4 c2 -4 -4 -8 -14 -8 -10 0
-16 4 -14 8 3 4 9 8 14 8 5 0 11 -4 14 -8z m192 -5 c4 -3 -6 -5 -20 -3 -14 1
-29 5 -32 9 -3 3 6 4 20 3 15 -2 29 -6 32 -9z m364 9 c0 -3 -4 -8 -10 -11 -5
-3 -10 -1 -10 4 0 6 5 11 10 11 6 0 10 -2 10 -4z m320 0 c0 -3 -4 -8 -10 -11
-5 -3 -10 -1 -10 4 0 6 5 11 10 11 6 0 10 -2 10 -4z m116 -9 c4 -3 -6 -5 -20
-3 -14 1 -29 5 -32 9 -3 3 6 4 20 3 15 -2 29 -6 32 -9z m168 5 c3 -5 -1 -9 -9
-9 -8 0 -15 4 -15 9 0 4 4 8 9 8 6 0 12 -4 15 -8z m312 -5 c4 -3 -6 -5 -20 -3
-14 1 -29 5 -32 9 -3 3 6 4 20 3 15 -2 29 -6 32 -9z"/>
<path d="M2270 3685 c0 -8 5 -15 12 -15 6 0 8 -3 5 -6 -4 -4 -14 -1 -23 7 -16
13 -16 12 -4 -11 12 -23 12 -24 -4 -11 -14 12 -16 12 -10 -3 3 -9 14 -16 23
-16 13 0 13 -2 2 -9 -8 -5 -21 -7 -30 -4 -14 4 -14 3 -1 -5 8 -6 17 -9 20 -7
4 2 7 -2 7 -10 0 -8 -4 -12 -8 -9 -4 2 -7 -5 -6 -16 1 -11 5 -20 10 -20 4 0 5
-5 2 -10 -5 -8 -12 -7 -23 2 -15 12 -16 11 -3 -4 7 -10 17 -15 22 -13 4 3 7
-4 6 -15 -1 -11 -5 -20 -11 -20 -5 0 -1 -9 9 -20 17 -19 20 -19 36 -4 10 9 23
13 28 9 6 -3 11 0 11 7 0 8 5 6 11 -5 5 -9 7 -22 3 -29 -4 -7 -3 -8 4 -4 7 4
12 13 12 21 0 8 9 12 25 10 14 -1 28 2 31 7 3 4 11 5 17 1 19 -12 57 -11 57 1
0 6 5 3 11 -7 5 -9 7 -22 3 -29 -4 -7 -3 -8 4 -4 7 4 12 13 12 19 0 16 99 13
131 -4 22 -11 23 -11 10 5 -8 9 -11 19 -7 23 3 3 6 1 6 -5 0 -16 27 -15 33 1
4 10 6 10 6 0 1 -7 6 -13 12 -13 5 0 7 5 4 10 -10 16 1 11 16 -7 8 -9 9 -14 3
-10 -6 3 -11 0 -11 -8 0 -11 4 -12 13 -4 7 6 19 7 26 3 9 -6 9 -3 -1 9 -8 10
-11 20 -7 24 3 3 6 2 6 -4 0 -14 86 -16 112 -2 15 8 19 8 14 0 -5 -7 7 -11 34
-11 30 0 39 3 34 13 -5 8 -2 8 9 -2 17 -14 24 -26 9 -17 -5 3 -9 -1 -9 -9 0
-11 4 -12 13 -4 7 6 19 7 26 3 9 -6 9 -3 -1 9 -8 10 -11 20 -7 24 3 3 6 1 6
-4 0 -7 21 -11 53 -11 29 1 64 -5 77 -12 23 -12 24 -12 11 4 -8 9 -11 19 -7
23 3 3 6 1 6 -5 0 -7 7 -12 15 -12 8 0 15 6 15 13 0 9 2 9 9 -1 5 -9 23 -13
47 -11 22 1 50 -3 64 -11 23 -12 24 -12 11 4 -8 9 -11 19 -7 23 3 3 6 1 6 -5
0 -16 27 -15 33 1 4 10 6 10 6 0 1 -7 6 -13 12 -13 5 0 7 5 4 10 -10 16 1 11
16 -7 8 -9 9 -14 3 -10 -6 3 -11 0 -11 -8 0 -11 4 -12 13 -4 7 6 19 7 26 3 9
-6 9 -3 -1 9 -8 10 -11 20 -7 24 3 3 6 2 6 -4 0 -14 86 -16 112 -2 15 8 19 8
14 0 -5 -7 7 -11 34 -11 30 0 39 3 34 13 -5 8 -2 8 9 -2 17 -14 24 -26 9 -17
-5 3 -9 -1 -9 -9 0 -11 4 -12 13 -4 7 6 19 7 26 3 9 -6 9 -3 -1 9 -8 10 -11
20 -7 24 3 3 6 1 6 -5 0 -13 27 -12 49 2 10 6 12 5 7 -2 -4 -7 -1 -12 7 -12
22 0 27 11 16 33 -9 15 -8 18 2 12 8 -6 11 -4 6 7 -3 9 -1 20 5 26 6 6 6 12
-3 17 -8 6 -10 4 -4 -5 5 -9 4 -11 -4 -6 -8 5 -9 12 -2 20 6 7 6 17 1 26 -12
19 -3 30 18 24 10 -4 13 -3 6 3 -6 4 -10 16 -8 26 2 15 -8 22 -29 18 -5 -1 -6
3 -2 9 3 6 11 7 17 4 7 -4 8 -2 4 4 -5 9 -196 12 -737 12 -641 0 -729 -2 -729
-15z m23 -212 c-3 -7 -9 -10 -14 -7 -14 8 -11 21 5 21 8 0 12 -6 9 -14z"/>
<path d="M3739 3601 c6 -10 8 -20 6 -23 -3 -3 1 -5 9 -5 12 0 12 4 -1 24 -18
28 -28 31 -14 4z"/>
<path d="M3750 3499 c0 -5 5 -7 10 -4 6 3 10 8 10 11 0 2 -4 4 -10 4 -5 0 -10
-5 -10 -11z"/>
<path d="M1740 3465 c-7 -8 -11 -15 -9 -16 38 -8 40 -7 28 7 -7 9 -8 14 -1 14
6 0 14 -4 17 -10 3 -5 12 -10 18 -10 12 1 -21 30 -34 30 -3 0 -12 -7 -19 -15z"/>
<path d="M2426 3471 c-4 -6 -13 -8 -20 -5 -18 7 -30 -12 -15 -22 8 -5 9 -3 4
6 -6 10 -4 12 8 7 9 -3 19 -2 22 4 4 5 11 6 17 3 6 -4 5 -10 -3 -15 -10 -6
-10 -9 -2 -9 6 0 14 4 18 9 3 6 14 8 25 6 11 -2 22 0 24 4 3 4 -7 7 -22 6 -15
-1 -32 2 -39 7 -7 5 -14 5 -17 -1z"/>
<path d="M2310 3460 c0 -4 7 -7 15 -6 23 3 26 12 5 13 -11 1 -20 -2 -20 -7z"/>
<path d="M2545 3461 c-3 -5 -2 -12 3 -15 5 -3 9 1 9 9 0 17 -3 19 -12 6z"/>
<path d="M2630 3461 c0 -6 4 -13 10 -16 6 -3 7 1 4 9 -7 18 -14 21 -14 7z"/>
<path d="M2696 3461 c-4 -5 -2 -12 3 -15 5 -4 12 -2 15 3 4 5 2 12 -3 15 -5 4
-12 2 -15 -3z"/>
<path d="M2870 3460 c0 -6 4 -9 9 -6 5 4 12 1 14 -4 3 -6 4 -5 3 2 -3 15 -26
23 -26 8z"/>
<path d="M3110 3461 c0 -6 4 -13 10 -16 6 -3 7 1 4 9 -7 18 -14 21 -14 7z"/>
<path d="M3176 3461 c-4 -5 -2 -12 3 -15 5 -4 12 -2 15 3 4 5 2 12 -3 15 -5 4
-12 2 -15 -3z"/>
<path d="M3270 3461 c0 -6 4 -13 10 -16 6 -3 7 1 4 9 -7 18 -14 21 -14 7z"/>
<path d="M3336 3461 c-4 -5 -2 -12 3 -15 5 -4 12 -2 15 3 4 5 2 12 -3 15 -5 4
-12 2 -15 -3z"/>
<path d="M3510 3460 c0 -6 4 -9 9 -6 5 4 12 1 14 -4 3 -6 4 -5 3 2 -3 15 -26
23 -26 8z"/>
<path d="M3690 3460 c0 -5 5 -10 11 -10 5 0 7 5 4 10 -3 6 -8 10 -11 10 -2 0
-4 -4 -4 -10z"/>
<path d="M1290 3434 c0 -8 5 -12 10 -9 6 4 8 11 5 16 -9 14 -15 11 -15 -7z"/>
<path d="M1131 3323 c-1 -17 16 -25 25 -12 4 7 3 9 -4 5 -5 -3 -13 0 -15 6 -4
9 -6 10 -6 1z"/>
<path d="M1894 3302 c4 -7 2 -12 -4 -12 -6 0 -8 -6 -4 -12 6 -10 4 -10 -7 0
-18 16 -29 15 -29 -4 0 -9 5 -12 12 -8 7 4 8 3 4 -4 -5 -8 -13 -9 -25 -3 -13
7 -18 6 -18 -4 0 -8 5 -12 11 -9 6 3 3 -1 -7 -9 -16 -13 -16 -15 -2 -21 11 -4
14 -2 9 7 -4 6 -3 8 1 4 14 -13 15 -39 1 -34 -9 4 -11 -2 -8 -19 2 -14 0 -24
-7 -24 -6 0 -11 -4 -11 -8 0 -5 7 -9 15 -9 8 0 12 4 9 9 -3 4 0 8 6 8 7 0 9
-7 6 -16 -3 -9 -6 -18 -6 -20 0 -3 -4 -2 -10 1 -6 3 -7 -1 -4 -9 3 -9 12 -16
19 -16 7 0 16 -8 20 -17 5 -15 4 -16 -6 -5 -16 15 -29 16 -29 1 0 -5 4 -8 9
-4 5 3 12 1 16 -5 4 -7 13 -6 27 1 16 9 23 8 29 -2 7 -11 9 -11 9 1 0 9 3 11
8 5 9 -12 44 -16 36 -4 -3 5 2 9 10 9 9 0 16 -6 16 -12 0 -9 4 -8 10 2 5 8 10
10 10 5 0 -6 9 -11 19 -11 11 0 17 4 15 8 -3 4 2 8 10 8 9 0 16 -5 16 -11 0
-8 6 -7 17 2 15 12 16 12 8 -1 -8 -13 -7 -13 8 -1 11 8 17 9 17 3 0 -6 7 -9
15 -6 8 4 12 10 9 15 -3 5 2 6 10 3 9 -3 16 -10 16 -15 0 -5 5 -9 11 -9 5 0 8
4 5 8 -2 4 4 8 14 8 10 0 16 -5 12 -11 -3 -5 2 -4 11 4 11 8 17 9 17 3 0 -6 7
-9 15 -6 8 4 12 10 9 15 -3 5 2 6 10 3 9 -3 16 -10 16 -15 0 -5 5 -9 11 -9 5
0 7 5 3 11 -5 8 -1 8 13 0 14 -7 23 -7 31 1 7 7 12 8 12 2 0 -5 9 -10 19 -10
11 0 17 4 15 8 -3 4 0 8 5 8 6 0 11 -4 11 -9 0 -5 9 -7 20 -4 11 3 17 10 13
17 -4 6 2 4 13 -4 10 -8 16 -10 12 -6 -4 5 -3 15 3 22 9 10 7 15 -4 20 -13 5
-14 9 -4 19 7 7 16 10 21 7 5 -3 6 0 2 7 -6 9 -11 9 -24 -1 -14 -11 -15 -10
-9 5 4 10 7 23 7 28 0 6 6 7 13 3 9 -6 9 -5 0 8 -7 8 -10 18 -6 21 3 4 1 7 -6
7 -7 0 -9 5 -6 10 5 8 11 7 21 -1 8 -6 14 -7 14 -3 0 5 -9 15 -21 22 -11 7
-18 19 -15 27 3 8 1 17 -5 20 -5 4 -7 11 -4 16 10 15 -2 10 -16 -8 -12 -14
-12 -16 0 -8 10 6 12 4 6 -5 -6 -10 -12 -9 -24 7 -16 20 -17 20 -34 -1 -15
-17 -17 -18 -13 -3 3 9 3 17 -1 17 -3 0 -12 -8 -20 -17 -14 -17 -14 -17 -9 0
4 13 2 16 -7 10 -15 -9 -47 -5 -67 10 -13 10 -13 10 -2 -5 9 -11 10 -18 2 -23
-5 -3 -10 -2 -10 2 0 5 -9 9 -20 10 -13 1 -18 -2 -14 -10 4 -7 -5 -1 -21 13
-16 14 -26 21 -23 15 7 -11 -17 -37 -25 -28 -3 3 -3 12 -1 21 3 10 -2 6 -11
-8 -9 -14 -14 -17 -11 -8 3 10 0 20 -6 24 -6 4 -8 3 -5 -3 12 -19 -20 -22 -44
-5 -22 15 -23 15 -11 0 9 -11 10 -18 2 -23 -5 -3 -10 -2 -10 3 0 5 -11 12 -25
14 -18 4 -22 2 -16 -6 6 -8 2 -11 -15 -11 -13 0 -24 3 -24 8 0 4 5 7 11 7 5 0
7 5 4 10 -4 6 -15 1 -26 -12 l-20 -23 6 25 c4 14 3 20 -2 15 -10 -13 -23 -13
-42 -1 -10 6 -12 5 -7 -2z m36 -18 c0 -8 -19 -13 -24 -6 -3 5 1 9 9 9 8 0 15
-2 15 -3z"/>
<path d="M2854 3302 c4 -7 2 -12 -4 -12 -6 0 -8 -5 -4 -12 6 -9 3 -9 -9 0 -9
8 -30 15 -46 16 -26 2 -28 0 -18 -13 10 -12 9 -13 -11 -2 -25 13 -53 11 -64
-4 -5 -6 -8 -5 -8 3 0 6 -4 12 -9 12 -6 0 -10 -8 -10 -17 0 -10 -2 -31 -4 -48
-3 -16 0 -36 7 -44 8 -12 8 -13 -1 -7 -8 4 -13 1 -13 -9 0 -10 5 -13 13 -9 6
4 4 -2 -6 -13 -11 -13 -14 -23 -8 -27 6 -4 7 -14 4 -23 -5 -12 -3 -14 7 -8 9
6 11 4 5 -5 -10 -17 16 -32 32 -18 9 7 13 7 13 0 0 -6 7 -9 15 -6 8 4 12 10 9
15 -3 5 2 6 10 3 9 -3 16 -10 16 -15 0 -5 5 -9 11 -9 5 0 7 5 3 11 -5 8 -1 8
14 0 14 -7 23 -8 27 -1 3 5 11 10 16 10 6 0 8 -4 5 -8 -2 -4 4 -8 14 -8 10 0
16 4 14 8 -3 4 0 8 5 8 6 0 11 -4 11 -8 0 -4 9 -8 19 -8 11 0 17 4 15 8 -3 4
2 8 10 8 9 0 16 -6 16 -12 0 -9 4 -8 10 2 5 8 10 10 10 5 0 -6 9 -11 19 -11
11 0 17 4 15 8 -3 4 2 8 10 8 9 0 16 -5 16 -11 0 -8 6 -7 17 2 15 12 16 12 8
-1 -6 -12 -5 -13 5 -3 10 9 17 9 26 2 9 -7 19 -7 33 0 13 7 22 8 26 1 8 -13
25 -13 25 1 0 5 -5 7 -12 3 -7 -4 -8 -3 -4 5 6 9 11 9 21 1 10 -9 13 -5 11 19
-2 26 0 28 16 20 14 -7 16 -6 12 6 -6 14 -18 19 -36 16 -5 0 -8 4 -8 10 0 6 7
8 16 5 10 -4 13 -2 8 6 -17 27 -13 59 9 68 13 5 16 9 7 10 -8 0 -24 13 -34 28
l-20 27 22 -19 c11 -10 27 -16 34 -13 11 4 11 6 0 6 -7 1 -30 13 -50 29 -20
15 -33 23 -30 17 6 -11 -17 -37 -25 -28 -3 3 -3 12 -1 21 3 10 -2 6 -11 -8 -9
-14 -14 -17 -11 -8 3 10 0 20 -6 24 -6 4 -8 3 -5 -3 12 -19 -20 -22 -44 -5
-22 15 -23 15 -11 0 9 -11 10 -18 2 -23 -5 -3 -10 -2 -10 3 0 5 -11 12 -25 14
-18 4 -22 2 -16 -6 6 -8 2 -11 -15 -11 -13 0 -24 3 -24 8 0 4 5 7 11 7 5 0 7
5 4 10 -4 6 -15 1 -26 -12 l-20 -23 6 25 c4 14 3 20 -2 15 -10 -13 -23 -13
-42 -1 -10 6 -12 5 -7 -2z m36 -18 c0 -8 -19 -13 -24 -6 -3 5 1 9 9 9 8 0 15
-2 15 -3z"/>
<path d="M3540 3298 c0 -6 -3 -8 -7 -5 -3 4 -17 0 -31 -9 -13 -9 -22 -11 -18
-6 3 6 2 13 -4 17 -5 3 -10 2 -10 -3 0 -5 -18 -8 -40 -7 -22 1 -40 -2 -40 -7
0 -5 10 -7 23 -3 14 3 10 -1 -11 -13 -18 -10 -30 -21 -26 -25 12 -11 26 -8 18
5 -5 7 -3 8 6 3 10 -6 10 -11 -3 -20 -19 -13 -24 -30 -6 -19 8 5 8 1 0 -14
-13 -25 -14 -35 -3 -28 5 3 9 -1 9 -9 0 -8 -4 -12 -9 -9 -4 3 -8 0 -8 -5 0 -6
4 -11 9 -11 6 0 6 -12 1 -30 -5 -16 -5 -29 -2 -29 20 3 32 -2 27 -11 -3 -6 1
-7 9 -4 9 3 13 11 10 18 -3 6 0 4 8 -4 14 -17 42 -20 55 -6 5 5 2 6 -6 1 -10
-6 -12 -4 -6 5 6 10 10 10 20 -3 9 -13 14 -14 25 -4 10 10 11 9 5 -3 -8 -13
-7 -13 8 -1 11 8 17 9 17 3 0 -6 7 -9 15 -6 8 4 12 10 9 15 -3 5 2 6 10 3 9
-3 16 -10 16 -15 0 -5 5 -9 11 -9 5 0 7 5 3 11 -5 8 -1 8 13 0 14 -7 23 -7 31
1 9 9 12 9 12 0 0 -6 7 -9 15 -6 8 4 12 10 9 15 -3 5 2 6 10 3 9 -3 16 -10 16
-15 0 -5 5 -9 11 -9 5 0 7 5 3 11 -5 8 -1 8 14 0 14 -7 23 -8 27 -1 3 5 11 10
16 10 6 0 8 -4 5 -8 -2 -4 4 -8 14 -8 10 0 16 4 14 8 -3 4 0 8 5 8 6 0 11 -4
11 -10 0 -5 5 -10 11 -10 5 0 7 5 3 11 -5 8 -1 8 14 0 14 -8 23 -8 27 -1 4 7
11 7 18 2 15 -12 48 -12 41 0 -8 13 10 10 25 -4 11 -10 13 -10 7 0 -4 6 -2 12
3 12 6 0 11 -4 11 -10 0 -5 5 -10 11 -10 5 0 7 5 3 11 -5 8 -1 8 14 0 14 -7
23 -8 27 -1 4 7 12 7 25 0 13 -7 21 -7 26 1 5 8 9 8 14 -1 5 -8 13 -9 21 -4 8
5 21 9 29 9 29 1 41 15 30 36 -6 11 -16 16 -22 13 -7 -4 -8 -3 -4 5 4 6 13 8
19 4 7 -4 5 2 -3 12 -14 17 -13 18 5 11 17 -6 16 -3 -5 20 l-25 27 24 -13 c13
-6 21 -7 17 -2 -3 6 -3 12 1 15 5 2 3 2 -4 1 -7 -2 -15 1 -18 6 -4 6 1 10 9
10 8 0 18 5 22 12 5 8 2 9 -10 5 -14 -5 -17 -3 -12 8 3 8 1 15 -5 15 -6 0 -7
5 -4 10 3 6 1 10 -5 10 -6 0 -8 5 -5 10 3 6 -1 10 -10 10 -9 0 -14 -4 -11 -8
3 -5 -1 -9 -9 -9 -8 0 -12 4 -10 8 7 11 -20 18 -35 9 -7 -4 -9 -14 -6 -21 4
-8 0 -5 -9 6 -13 16 -17 17 -24 6 -7 -11 -9 -11 -14 0 -5 12 -7 12 -15 0 -7
-10 -11 -10 -14 -1 -3 10 -9 10 -27 0 -13 -6 -21 -8 -17 -2 8 13 -17 22 -34
12 -7 -4 -9 -14 -6 -21 4 -8 0 -5 -9 6 -13 16 -17 17 -24 6 -7 -11 -9 -11 -14
0 -4 12 -7 11 -16 -1 -6 -8 -11 -10 -11 -4 0 6 -13 11 -30 11 -18 0 -27 -4
-23 -11 3 -6 -6 0 -22 14 -16 14 -26 21 -23 15 7 -11 -17 -37 -25 -28 -3 3 -3
12 -1 21 3 10 -2 6 -11 -8 -9 -14 -14 -17 -11 -8 3 10 0 20 -6 24 -6 4 -8 3
-5 -3 12 -19 -20 -22 -44 -5 -22 15 -23 15 -11 0 9 -11 10 -18 2 -23 -5 -3
-10 -2 -10 3 0 5 -11 12 -25 14 -18 4 -22 2 -16 -6 6 -8 2 -11 -15 -11 -13 0
-24 3 -24 8 0 4 5 7 11 7 5 0 7 5 4 10 -4 6 -15 1 -26 -12 l-20 -23 6 23 c4
12 4 22 1 22 -3 0 -6 -5 -6 -12z m670 -212 c0 -3 -4 -8 -10 -11 -5 -3 -10 -1
-10 4 0 6 5 11 10 11 6 0 10 -2 10 -4z"/>
<path d="M4210 3271 c0 -6 4 -13 10 -16 6 -3 7 1 4 9 -7 18 -14 21 -14 7z"/>
<path d="M2466 3262 c-3 -5 1 -9 9 -9 8 0 12 4 9 9 -3 4 -7 8 -9 8 -2 0 -6 -4
-9 -8z"/>
<path d="M1046 3234 c-5 -14 -4 -15 9 -4 17 14 19 20 6 20 -5 0 -12 -7 -15
-16z"/>
<path d="M3190 3199 c0 -4 6 -9 13 -12 8 -3 14 0 14 7 0 7 -6 13 -14 13 -7 0
-13 -4 -13 -8z"/>
<path d="M3202 3156 c7 -8 15 -12 17 -11 5 6 -10 25 -20 25 -5 0 -4 -6 3 -14z"/>
<path d="M1235 3080 c3 -5 8 -10 11 -10 2 0 4 5 4 10 0 6 -5 10 -11 10 -5 0
-7 -4 -4 -10z"/>
<path d="M1060 2930 c-9 -6 -10 -10 -3 -10 6 0 15 5 18 10 8 12 4 12 -15 0z"/>
<path d="M1026 2912 c-3 -6 -1 -14 5 -17 15 -10 25 3 12 16 -7 7 -13 7 -17 1z"/>
<path d="M1500 2901 c0 -6 -8 -8 -18 -6 -10 2 -25 -1 -32 -5 -17 -11 -22 -40
-7 -40 7 0 6 -4 -2 -9 -12 -8 -13 -14 -2 -37 10 -23 10 -26 -2 -16 -11 10 -13
7 -12 -16 3 -39 9 -56 20 -64 6 -5 5 -8 -2 -8 -7 0 -13 -5 -13 -11 0 -6 6 -9
13 -6 8 3 14 -1 14 -8 0 -8 -8 -12 -20 -9 -11 2 -16 0 -13 -4 7 -7 11 -8 37
-11 5 0 7 -6 3 -13 -4 -7 -3 -8 5 -4 6 4 8 13 4 19 -4 7 2 5 12 -3 15 -12 17
-12 10 -1 -6 11 -4 13 10 8 9 -4 23 -3 30 3 9 7 19 5 36 -9 21 -16 27 -17 43
-5 16 11 22 11 35 1 12 -10 13 -9 6 2 -6 11 -4 13 10 8 9 -4 23 -3 30 3 9 7
19 5 36 -9 21 -16 27 -17 43 -5 16 11 22 11 35 1 12 -10 13 -9 6 2 -6 11 -4
13 10 8 9 -4 23 -3 30 3 9 7 19 5 36 -9 21 -16 27 -17 43 -5 16 11 22 11 35 1
12 -10 13 -9 6 2 -6 11 -4 13 10 8 9 -4 23 -3 30 3 9 7 19 5 36 -9 21 -16 27
-17 43 -5 16 11 22 11 35 1 12 -10 13 -9 6 2 -6 11 -4 13 10 8 9 -4 23 -3 30
3 9 7 19 5 36 -9 21 -16 27 -17 43 -5 16 11 22 11 35 1 12 -10 13 -9 6 2 -6
11 -4 13 10 8 9 -4 23 -3 30 3 9 7 19 5 36 -9 21 -16 27 -17 43 -5 16 11 22
11 35 1 12 -10 13 -9 6 2 -6 11 -4 13 10 8 9 -4 23 -3 30 3 9 7 20 4 40 -12
27 -21 27 -21 16 -1 -9 17 -8 21 4 19 8 -1 18 -6 22 -11 4 -4 2 -5 -4 -1 -9 5
-11 2 -6 -10 5 -15 7 -15 15 0 5 9 14 16 21 16 8 0 8 -3 -1 -9 -11 -7 -11 -9
1 -14 11 -4 14 1 12 18 -1 14 2 22 6 19 5 -3 9 -12 9 -20 0 -8 5 -14 11 -14 5
0 8 4 5 8 -7 11 31 8 41 -3 5 -4 2 -5 -6 0 -10 5 -12 4 -7 -4 4 -6 12 -9 17
-5 5 3 6 10 3 16 -5 8 -1 9 12 4 10 -4 24 -8 29 -9 6 -1 14 -6 18 -12 5 -6 7
-4 4 5 -2 8 -10 14 -16 12 -7 -1 -10 2 -6 8 8 13 45 -6 45 -23 0 -8 2 -9 8 -1
4 6 24 14 45 18 20 4 37 11 37 17 0 6 -6 7 -12 4 -7 -4 -2 2 11 13 18 14 21
21 11 27 -9 6 -11 4 -5 -6 8 -12 6 -12 -8 0 -18 15 -23 26 -7 16 6 -3 10 -1
10 5 0 6 6 8 13 4 6 -4 4 1 -5 12 -17 17 -17 19 0 38 16 18 16 19 0 13 -10 -4
-18 -4 -18 0 0 3 8 12 18 19 16 13 16 13 0 14 -15 0 -16 4 -8 26 6 14 6 23 1
20 -5 -4 -11 0 -13 6 -3 7 -16 13 -31 13 -14 1 -24 -2 -21 -6 2 -4 -3 -10 -12
-13 -21 -8 -24 -8 -24 5 0 5 4 8 8 5 5 -3 9 1 9 9 0 8 -4 15 -9 15 -4 0 -8 -5
-8 -11 0 -6 -7 -8 -16 -5 -8 3 -12 2 -9 -4 3 -6 1 -10 -4 -10 -6 0 -11 6 -11
13 0 6 -5 4 -11 -5 -11 -20 -29 -24 -29 -7 0 5 4 8 8 5 5 -3 9 1 9 9 0 8 -4
15 -9 15 -4 0 -8 -5 -8 -11 0 -6 -7 -8 -16 -5 -8 3 -12 2 -9 -4 3 -6 1 -10 -4
-10 -6 0 -11 4 -11 8 0 5 -6 9 -14 9 -8 0 -12 -6 -9 -14 3 -7 0 -13 -6 -13 -6
0 -11 4 -11 9 0 5 -11 11 -25 13 -13 3 -22 1 -19 -3 3 -5 2 -9 -3 -10 -4 0
-18 -2 -30 -5 -13 -2 -23 0 -23 5 0 6 9 8 19 6 14 -3 18 1 14 12 -4 10 -8 11
-13 3 -4 -6 -10 -11 -14 -11 -3 1 -9 0 -13 0 -5 -1 -16 0 -27 1 -10 1 -16 -2
-13 -8 4 -5 -1 -9 -9 -9 -9 0 -13 6 -9 16 3 8 3 12 -1 9 -4 -4 -14 -3 -24 2
-12 6 -17 5 -17 -5 0 -7 6 -11 14 -8 7 3 13 1 13 -5 0 -5 -10 -9 -22 -8 -17 1
-22 7 -20 21 4 20 3 20 -13 0 -9 -11 -14 -14 -10 -8 4 9 1 11 -9 7 -9 -3 -14
-9 -11 -13 2 -4 -3 -8 -11 -8 -9 0 -13 6 -9 16 3 8 3 12 -1 9 -4 -4 -14 -3
-24 2 -12 6 -17 5 -17 -5 0 -7 6 -11 14 -8 7 3 13 1 13 -4 0 -5 -11 -9 -25 -9
-20 0 -24 4 -19 21 4 14 3 16 -4 7 -5 -8 -12 -13 -16 -13 -19 3 -27 0 -22 -8
7 -11 -42 -7 -52 4 -4 5 1 5 10 2 10 -3 20 -1 24 6 4 7 4 9 -1 5 -4 -4 -17 -3
-28 3 -11 7 -17 7 -13 1 3 -5 -2 -16 -11 -23 -14 -12 -15 -11 -9 11 5 17 4 20
-2 12 -5 -8 -12 -13 -16 -13 -19 3 -27 0 -22 -8 7 -11 -42 -7 -52 4 -4 5 1 5
10 2 10 -3 20 -1 24 6 4 7 4 9 -1 5 -4 -4 -17 -3 -28 3 -11 7 -17 7 -13 1 3
-5 -2 -16 -11 -23 -14 -12 -15 -11 -10 11 4 14 4 19 1 13 -4 -9 -11 -10 -23
-3 -13 6 -18 5 -18 -5 0 -7 6 -11 14 -8 7 3 13 1 13 -4 0 -12 -67 -10 -77 2
-5 4 0 5 9 2 10 -3 20 -1 24 5 4 6 3 8 -4 4 -6 -3 -14 -1 -17 4 -5 7 -11 5
-20 -6 -13 -19 -55 -30 -55 -15 0 6 9 8 19 6 14 -3 18 1 14 12 -4 10 -8 11
-13 3 -4 -6 -10 -11 -14 -11 -3 1 -9 0 -13 0 -5 -1 -16 0 -27 1 -10 1 -16 -2
-13 -8 4 -5 -1 -9 -9 -9 -9 0 -13 6 -9 16 3 8 3 12 -1 9 -4 -4 -14 -3 -24 2
-12 6 -17 5 -17 -5 0 -7 6 -11 14 -8 7 3 13 1 13 -5 0 -5 -10 -9 -22 -8 -17 1
-22 7 -20 21 4 20 3 20 -13 0 -9 -11 -14 -14 -10 -8 4 9 1 11 -9 7 -9 -3 -14
-9 -11 -13 2 -4 -3 -8 -11 -8 -9 0 -13 6 -9 16 3 8 3 12 -1 9 -4 -4 -14 -3
-24 2 -12 6 -17 5 -17 -5 0 -7 6 -11 14 -8 7 3 13 1 13 -4 0 -5 -11 -9 -25 -9
-20 0 -24 4 -19 21 4 14 3 16 -4 7 -5 -8 -12 -13 -16 -13 -19 3 -27 0 -22 -8
7 -11 -42 -7 -52 4 -4 5 1 5 10 2 10 -3 20 -1 24 6 4 7 4 9 -1 5 -4 -4 -17 -3
-28 3 -11 7 -17 7 -13 1 3 -5 -2 -16 -11 -23 -14 -12 -15 -11 -9 9 4 12 5 22
2 22 -3 0 -6 -4 -6 -9z m-37 -32 c-8 -8 -13 -7 -18 2 -5 8 -4 10 3 5 7 -4 12
-2 12 5 0 7 3 9 7 6 4 -4 2 -12 -4 -18z m1390 7 c4 -10 1 -13 -9 -9 -7 3 -14
9 -14 14 0 14 17 10 23 -5z m-28 -16 c3 -5 1 -10 -4 -10 -6 0 -11 5 -11 10 0
6 2 10 4 10 3 0 8 -4 11 -10z m-1381 -106 c3 -8 2 -12 -4 -9 -6 3 -10 10 -10
16 0 14 7 11 14 -7z m166 -99 c0 -12 -19 -12 -23 0 -4 9 -1 12 9 8 7 -3 14 -7
14 -8z m160 0 c0 -12 -19 -12 -23 0 -4 9 -1 12 9 8 7 -3 14 -7 14 -8z m160 0
c0 -12 -19 -12 -23 0 -4 9 -1 12 9 8 7 -3 14 -7 14 -8z m160 0 c0 -12 -19 -12
-23 0 -4 9 -1 12 9 8 7 -3 14 -7 14 -8z m160 0 c0 -12 -19 -12 -23 0 -4 9 -1
12 9 8 7 -3 14 -7 14 -8z m160 0 c0 -12 -19 -12 -23 0 -4 9 -1 12 9 8 7 -3 14
-7 14 -8z"/>
<path d="M3094 2886 c-3 -14 -3 -30 1 -36 3 -6 1 -9 -6 -8 -6 2 -14 -3 -17
-11 -3 -10 0 -11 9 -5 12 6 12 5 1 -8 -9 -11 -10 -18 -2 -23 7 -4 7 -12 0 -25
-14 -25 -13 -60 2 -60 6 0 8 -3 5 -7 -4 -3 -17 2 -29 13 -14 12 -18 13 -10 3
6 -9 8 -19 4 -23 -4 -4 -2 -7 3 -6 24 5 34 -1 28 -17 -5 -12 -3 -14 7 -8 10 6
12 4 8 -7 -5 -11 0 -14 17 -12 13 1 28 5 34 8 5 4 13 1 17 -5 5 -8 3 -9 -6 -4
-9 5 -11 4 -6 -4 4 -6 12 -9 17 -5 5 3 6 10 3 16 -5 8 -1 9 12 4 10 -4 24 -8
29 -9 6 -1 14 -6 18 -12 5 -6 7 -4 4 5 -2 8 -10 14 -16 12 -7 -1 -10 2 -6 8 8
13 45 -6 45 -23 0 -8 4 -6 10 3 8 12 12 13 19 2 7 -11 9 -11 14 2 4 9 12 16
19 16 10 0 10 -2 0 -9 -11 -7 -11 -9 1 -14 11 -4 14 1 12 18 -1 14 2 22 6 19
5 -3 9 -13 9 -22 0 -15 2 -15 10 -2 8 12 10 12 11 -5 0 -19 1 -19 8 -1 7 18 8
18 26 0 17 -17 18 -17 12 -2 -3 10 -2 20 3 23 6 4 10 -2 10 -12 0 -15 2 -16
10 -3 9 13 10 13 10 0 0 -13 1 -13 10 0 9 14 14 7 11 -13 -1 -5 3 -6 9 -2 6 3
8 10 5 14 -2 5 7 6 22 3 20 -4 24 -2 18 9 -6 11 -5 11 5 2 7 -6 20 -9 29 -6
12 4 13 3 3 -5 -11 -7 -11 -10 1 -15 11 -4 14 1 12 18 -1 14 2 22 6 19 5 -3 9
-12 9 -20 0 -8 5 -14 11 -14 5 0 8 4 5 8 -7 11 31 8 41 -3 5 -4 2 -5 -6 0 -10
5 -12 4 -7 -4 4 -6 12 -9 17 -5 5 3 7 10 4 15 -8 11 6 11 24 0 10 -6 20 -3 33
12 11 12 16 15 12 7 -11 -19 -14 -44 -6 -35 4 4 7 12 7 18 0 7 11 11 25 9 24
-3 23 -2 -5 13 -35 19 -47 31 -23 22 10 -3 20 -2 23 3 4 6 2 10 -4 10 -6 0 -7
7 -4 17 5 12 3 14 -8 8 -12 -7 -12 -6 -1 7 7 8 9 24 5 33 -5 13 -3 16 7 10 10
-6 10 -4 2 11 -6 12 -7 25 -1 36 6 11 5 19 -3 24 -6 4 -8 3 -4 -4 3 -6 1 -14
-5 -18 -8 -4 -9 -3 -5 4 9 15 -37 44 -58 36 -9 -3 -16 -1 -16 6 0 6 4 9 8 6 5
-3 9 1 9 9 0 8 -4 15 -9 15 -4 0 -8 -5 -8 -11 0 -6 -7 -8 -16 -5 -8 3 -12 2
-9 -4 3 -6 1 -10 -4 -10 -6 0 -11 4 -11 8 0 5 -6 9 -14 9 -8 0 -12 -6 -9 -14
3 -7 1 -13 -5 -13 -6 0 -12 5 -14 11 -5 16 -118 18 -118 2 0 -7 -5 -13 -11
-13 -5 0 -7 5 -3 11 4 8 -1 9 -16 4 -17 -5 -21 -4 -15 6 5 8 5 11 0 7 -4 -4
-15 -3 -25 2 -12 6 -17 5 -17 -5 0 -7 6 -11 14 -8 7 3 13 1 13 -4 0 -5 -11 -9
-25 -9 -20 0 -24 4 -19 21 3 11 2 16 -3 10 -4 -5 -12 -11 -18 -12 -5 -1 -19
-5 -29 -9 -15 -6 -17 -4 -11 7 4 8 5 11 0 7 -4 -4 -15 -3 -25 2 -12 6 -17 5
-17 -5 0 -7 6 -11 14 -8 7 3 13 1 13 -4 0 -5 -11 -9 -25 -9 -20 0 -24 4 -20
21 3 11 2 14 -1 7 -3 -6 -9 -10 -14 -7 -5 3 -16 -2 -24 -11 -9 -8 -16 -12 -16
-7 0 4 -5 1 -10 -7 -7 -11 -10 -11 -10 -2 0 7 -4 10 -10 7 -5 -3 -10 -1 -10 5
0 7 7 10 15 7 8 -4 17 -1 21 6 4 7 4 9 -1 5 -4 -4 -16 -3 -26 3 -14 7 -19 7
-17 -2 2 -6 -3 -14 -10 -16 -8 -3 -10 1 -6 11 3 9 3 16 0 16 -3 0 -8 -11 -12
-24z m107 -19 c-10 -9 -11 -8 -5 6 3 10 9 15 12 12 3 -3 0 -11 -7 -18z m129
13 c0 -5 -5 -10 -11 -10 -5 0 -7 5 -4 10 3 6 8 10 11 10 2 0 4 -4 4 -10z m200
6 c0 -2 -7 -7 -16 -10 -8 -3 -12 -2 -9 4 6 10 25 14 25 6z"/>
<path d="M3699 2882 c14 -11 31 -18 38 -15 17 7 12 12 -16 18 -11 2 -27 7 -34
10 -6 4 -1 -2 12 -13z"/>
<path d="M3060 2885 c0 -5 5 -17 10 -25 5 -8 10 -10 10 -5 0 6 -5 17 -10 25
-5 8 -10 11 -10 5z"/>
<path d="M584 2848 c-3 -10 -10 -15 -16 -12 -7 5 -8 2 -3 -6 7 -11 10 -10 19
1 7 8 17 19 24 25 10 8 9 11 -3 11 -8 0 -17 -9 -21 -19z"/>
<path d="M3746 2822 c-3 -5 1 -9 9 -9 8 0 12 4 9 9 -3 4 -7 8 -9 8 -2 0 -6 -4
-9 -8z"/>
<path d="M3054 2808 c-4 -6 -2 -14 5 -16 9 -3 9 -8 -1 -20 -12 -15 -11 -16 5
-3 12 9 14 17 7 26 -5 6 -7 15 -3 18 3 4 4 7 0 7 -3 0 -9 -5 -13 -12z"/>
<path d="M510 2780 c0 -5 5 -10 10 -10 6 0 10 5 10 10 0 6 -4 10 -10 10 -5 0
-10 -4 -10 -10z"/>
<path d="M830 2740 c0 -5 7 -7 15 -4 8 4 15 8 15 10 0 2 -7 4 -15 4 -8 0 -15
-4 -15 -10z"/>
<path d="M1536 2651 c-4 -5 -2 -12 3 -15 5 -4 12 -2 15 3 4 5 2 12 -3 15 -5 4
-12 2 -15 -3z"/>
<path d="M1696 2651 c-4 -5 -2 -12 3 -15 5 -4 12 -2 15 3 4 5 2 12 -3 15 -5 4
-12 2 -15 -3z"/>
<path d="M1856 2651 c-4 -5 -2 -12 3 -15 5 -4 12 -2 15 3 4 5 2 12 -3 15 -5 4
-12 2 -15 -3z"/>
<path d="M2016 2651 c-4 -5 -2 -12 3 -15 5 -4 12 -2 15 3 4 5 2 12 -3 15 -5 4
-12 2 -15 -3z"/>
<path d="M2176 2651 c-4 -5 -2 -12 3 -15 5 -4 12 -2 15 3 4 5 2 12 -3 15 -5 4
-12 2 -15 -3z"/>
<path d="M2336 2651 c-4 -5 -2 -12 3 -15 5 -4 12 -2 15 3 4 5 2 12 -3 15 -5 4
-12 2 -15 -3z"/>
<path d="M2496 2651 c-4 -5 -2 -12 3 -15 5 -4 12 -2 15 3 4 5 2 12 -3 15 -5 4
-12 2 -15 -3z"/>
<path d="M1760 2475 c-7 -8 -17 -12 -23 -8 -20 12 -44 10 -44 -3 0 -7 5 -11
10 -7 5 3 1 -7 -9 -23 -11 -15 -14 -25 -8 -21 7 4 14 0 18 -8 3 -8 -3 -19 -12
-24 -10 -6 -12 -11 -4 -11 6 0 12 -7 12 -16 0 -9 -5 -12 -12 -8 -10 6 -10 4
-2 -7 6 -8 9 -26 8 -41 -2 -16 1 -28 7 -28 5 0 9 -8 10 -17 0 -12 2 -13 6 -5
4 10 8 10 19 1 11 -9 14 -8 14 7 1 16 3 15 16 -6 8 -14 13 -17 10 -7 -4 12 -2
17 6 14 7 -2 12 -11 12 -20 -1 -9 3 -14 8 -11 5 3 7 12 4 20 -6 16 10 29 19
14 3 -5 15 -10 26 -10 13 0 18 -4 13 -12 -4 -7 -3 -8 5 -4 8 6 9 12 2 20 -8 9
-7 13 4 13 8 0 12 -3 10 -7 -2 -4 8 -8 23 -8 15 -1 37 -4 50 -6 14 -3 20 -1
16 6 -4 6 -1 9 7 6 8 -3 14 -10 14 -16 0 -5 3 -14 7 -18 4 -3 6 3 3 14 -4 23
10 39 20 22 3 -5 15 -10 26 -10 14 0 18 4 13 13 -6 9 -5 9 8 0 8 -7 18 -10 21
-6 4 3 14 0 24 -8 9 -8 14 -9 10 -2 -4 6 -3 14 2 17 5 4 12 2 16 -4 3 -5 15
-10 26 -10 14 0 18 4 13 13 -6 9 -5 9 8 0 8 -7 18 -10 22 -6 4 4 5 1 3 -7 -2
-8 -2 -12 0 -7 3 4 9 5 14 2 5 -4 6 1 3 9 -3 9 -1 16 4 16 6 0 13 9 17 19 3
11 11 19 18 17 7 -1 9 -1 5 1 -5 3 -8 9 -8 14 0 6 6 7 13 3 8 -5 8 -2 -2 9
-14 18 -26 23 -16 8 3 -5 1 -12 -4 -15 -5 -4 -8 2 -6 11 2 10 4 21 4 26 1 4 4
6 9 5 4 -2 8 2 9 7 1 6 -4 9 -11 8 -6 -2 -12 6 -12 16 0 16 3 18 15 8 12 -10
13 -9 7 1 -4 7 -3 19 3 26 8 9 7 13 -4 13 -8 0 -12 -4 -9 -9 3 -4 0 -8 -6 -8
-7 0 -9 8 -5 19 3 11 0 23 -6 27 -8 4 -9 3 -5 -4 5 -9 1 -10 -16 -3 -13 4 -29
6 -35 4 -7 -3 -13 1 -13 9 0 10 -2 10 -9 -1 -8 -13 -12 -13 -27 0 -10 8 -15 9
-11 3 4 -7 -2 -11 -18 -11 -14 0 -22 4 -19 9 4 6 -4 5 -16 -2 -18 -9 -24 -9
-30 0 -6 9 -9 9 -13 -1 -5 -12 -7 -12 -15 0 -8 11 -10 11 -14 0 -4 -12 -8 -11
-23 1 -10 8 -16 10 -12 4 4 -7 -2 -11 -18 -11 -14 0 -22 4 -19 9 4 6 -4 5 -16
-2 -18 -9 -24 -9 -30 0 -6 9 -9 9 -14 -1 -5 -12 -7 -12 -12 0 -5 11 -8 11 -14
0 -7 -10 -12 -10 -26 2 -10 8 -15 9 -11 3 4 -7 -2 -11 -18 -11 -14 0 -22 3
-19 8 9 15 -3 10 -16 -6z"/>
<path d="M2525 2481 c6 -11 4 -13 -8 -8 -10 3 -17 2 -17 -4 0 -6 -8 -5 -21 2
-13 6 -19 7 -15 1 3 -6 0 -13 -6 -15 -10 -4 -9 -6 1 -6 11 -1 11 -4 1 -16 -10
-11 -9 -18 4 -30 19 -20 21 -32 3 -17 -10 8 -13 6 -13 -9 0 -10 3 -19 6 -19 4
0 7 -7 7 -15 0 -8 -4 -15 -8 -15 -4 0 -6 -11 -5 -25 0 -14 4 -25 9 -25 4 0 7
-5 7 -11 0 -5 -4 -8 -8 -5 -5 3 -9 -1 -9 -9 0 -12 3 -12 15 -3 15 13 54 19 47
7 -3 -4 2 -10 11 -13 8 -3 12 -2 9 4 -3 6 -1 10 4 10 6 0 11 -4 11 -10 0 -5 5
-10 11 -10 5 0 7 5 3 12 -4 6 -3 8 4 4 6 -3 13 -2 17 4 4 6 12 7 24 1 19 -11
39 -10 59 3 7 4 16 5 19 2 4 -3 2 -6 -4 -6 -6 0 -14 -7 -17 -16 -5 -14 -4 -15
8 -5 8 7 21 9 27 5 8 -4 9 -3 5 4 -4 7 -1 12 7 12 8 0 18 7 21 16 3 8 2 13 -2
10 -5 -3 -9 1 -9 9 0 8 5 12 11 9 6 -3 2 2 -8 10 -13 10 -15 16 -7 16 11 0 11
3 0 17 -10 11 -10 14 -1 9 6 -4 12 -4 13 1 1 15 7 38 14 56 4 9 3 17 -2 17 -5
0 -10 -7 -11 -15 -1 -8 -3 -22 -4 -30 -1 -8 -5 -12 -10 -9 -4 3 -4 14 2 24 7
13 6 20 -3 23 -9 4 -8 6 2 6 11 1 11 4 0 19 -13 15 -12 16 3 4 12 -10 18 -10
24 -1 4 8 3 9 -4 5 -7 -4 -12 -2 -12 5 0 6 -8 9 -20 6 -10 -3 -19 -2 -18 2 2
18 -3 25 -10 13 -7 -10 -15 -10 -36 -2 -15 5 -25 6 -21 1 3 -6 -4 -9 -15 -8
-11 1 -20 5 -20 10 0 4 -5 5 -10 2 -6 -4 -7 -12 -3 -18 4 -7 0 -6 -10 2 -9 7
-17 10 -17 6 0 -4 -8 -1 -17 6 -14 12 -16 12 -8 0z"/>
<path d="M2982 2473 c-7 -10 -10 -13 -7 -6 3 7 -2 11 -14 10 -11 0 -17 -5 -14
-10 3 -5 -5 -6 -18 -2 -23 7 -23 7 -4 -8 11 -9 17 -19 12 -23 -4 -4 -7 -2 -7
5 0 7 -5 9 -11 6 -7 -5 -6 -12 3 -23 8 -10 13 -23 12 -29 -1 -7 -2 -18 -3 -24
0 -5 -5 -8 -10 -5 -11 7 -8 -21 4 -31 4 -4 5 -2 0 6 -6 10 -4 12 5 6 10 -6 9
-11 -5 -22 -14 -10 -15 -13 -4 -14 8 -1 18 -1 23 0 5 1 4 -5 -4 -13 -15 -19
-24 -21 -14 -3 4 6 3 8 -1 4 -16 -14 -14 -36 3 -30 11 5 13 3 7 -8 -7 -11 -5
-11 10 1 10 8 16 10 12 4 -4 -7 0 -14 8 -18 8 -3 14 -2 14 2 -3 21 3 22 19 1
15 -17 21 -19 27 -9 5 8 4 11 -3 6 -6 -3 -13 -2 -16 3 -4 5 -2 12 3 15 5 4 12
2 16 -4 3 -5 15 -10 26 -10 13 0 18 4 13 12 -5 7 -3 8 7 2 18 -11 41 -12 56
-1 6 4 14 3 18 -3 3 -5 15 -10 26 -10 13 0 18 4 13 12 -4 7 -3 8 5 4 6 -4 8
-13 4 -19 -4 -7 1 -6 10 2 10 8 20 11 24 8 3 -4 12 -2 19 4 8 7 14 7 19 -1 3
-5 15 -10 26 -10 13 0 18 4 13 12 -4 7 -3 8 5 4 6 -4 8 -13 4 -19 -4 -7 1 -6
10 2 10 8 20 11 24 8 3 -4 12 -2 19 4 8 7 14 7 19 -1 3 -5 15 -10 26 -10 13 0
18 4 13 12 -4 7 -3 8 5 4 6 -4 8 -12 5 -18 -4 -6 3 -4 16 5 16 11 27 13 36 7
12 -11 49 -9 60 3 4 3 15 2 26 -4 10 -5 24 -7 30 -3 7 5 8 2 3 -7 -5 -8 0 -7
12 4 11 9 22 14 26 11 11 -11 57 -13 63 -3 3 5 13 5 25 -1 11 -6 25 -8 31 -4
7 5 8 2 3 -7 -5 -9 -1 -8 11 3 14 12 24 14 37 7 12 -7 22 -7 32 1 9 7 15 8 20
0 3 -5 15 -10 26 -10 13 0 18 -4 13 -12 -4 -7 -3 -8 5 -4 8 6 9 12 2 20 -8 9
-7 13 4 13 8 0 11 -5 8 -10 -4 -6 0 -8 10 -4 9 3 19 1 23 -5 4 -6 3 -8 -4 -4
-6 3 -13 2 -16 -3 -4 -5 2 -8 11 -6 10 1 18 9 17 17 -1 8 7 15 16 15 13 1 16
-4 12 -20 -3 -12 -2 -20 1 -17 3 3 9 21 12 40 3 19 11 37 17 41 7 4 6 9 -2 14
-9 6 -9 10 1 16 11 7 11 9 1 9 -7 0 -10 5 -6 12 4 7 3 8 -4 4 -8 -5 -10 -2 -6
8 3 9 1 16 -5 16 -6 0 -11 4 -11 10 0 5 7 7 15 4 11 -5 13 -2 9 10 -3 9 -11
13 -17 9 -5 -3 -7 -1 -3 5 3 5 3 12 -1 15 -5 2 -3 2 4 1 6 -2 17 4 24 12 7 8
8 14 3 13 -5 -1 -11 0 -14 1 -19 7 -48 5 -44 -4 3 -6 -2 -2 -10 8 -9 11 -16
15 -16 10 0 -5 -9 -10 -20 -11 -11 -1 -20 4 -20 10 0 7 -4 6 -10 -3 -9 -13
-11 -13 -20 0 -7 11 -10 11 -10 2 0 -10 -5 -10 -21 -1 -13 7 -19 7 -15 1 4 -6
-2 -10 -14 -9 -11 1 -20 5 -20 10 0 4 -5 5 -10 2 -6 -4 -7 -12 -3 -18 5 -8 2
-8 -9 0 -8 7 -18 10 -21 6 -4 -3 -14 0 -24 8 -11 9 -14 10 -9 2 4 -7 3 -13 -1
-13 -5 0 -15 6 -22 13 -11 10 -13 10 -7 0 4 -7 3 -13 -1 -13 -5 0 -15 6 -22
13 -11 10 -13 10 -7 0 8 -14 -6 -18 -17 -6 -10 9 -57 10 -51 1 2 -4 -5 -6 -16
-5 -11 1 -20 5 -20 10 0 4 -5 5 -10 2 -6 -4 -8 -10 -5 -15 3 -4 -4 -6 -15 -3
-11 3 -17 10 -13 17 3 6 0 6 -8 -1 -7 -7 -17 -13 -22 -13 -4 0 -5 6 -1 13 5 8
2 8 -9 -2 -14 -11 -17 -11 -17 0 0 11 -2 11 -10 -1 -8 -12 -11 -13 -19 -1 -7
11 -9 11 -14 0 -4 -12 -7 -11 -16 1 -8 11 -11 11 -11 2 0 -10 -5 -10 -21 -1
-13 7 -19 7 -15 1 4 -6 -2 -10 -14 -9 -11 1 -20 5 -20 10 0 4 -5 5 -10 2 -6
-4 -7 -12 -3 -18 5 -8 2 -8 -9 0 -8 7 -18 10 -21 6 -4 -3 -14 0 -24 8 -11 9
-14 10 -9 2 4 -7 3 -13 -1 -13 -5 0 -15 6 -22 13 -11 10 -13 10 -7 0 4 -7 3
-13 -1 -13 -5 0 -15 6 -22 13 -11 10 -13 10 -7 0 8 -14 -6 -18 -17 -6 -10 9
-57 10 -51 1 2 -4 -5 -6 -16 -5 -11 1 -20 5 -20 10 0 4 -5 5 -10 2 -6 -4 -8
-10 -5 -15 3 -4 -4 -6 -15 -3 -11 3 -17 10 -13 17 4 6 0 5 -9 -2 -10 -8 -17
-9 -20 -2 -1 5 -9 2 -16 -7z m1028 -152 c0 -6 -4 -12 -8 -15 -5 -3 -9 1 -9 9
0 8 4 15 9 15 4 0 8 -4 8 -9z"/>
<path d="M2910 2401 c0 -6 4 -12 8 -15 5 -3 9 1 9 9 0 8 -4 15 -9 15 -4 0 -8
-4 -8 -9z"/>
<path d="M750 2376 c0 -2 8 -10 18 -17 15 -13 16 -12 3 4 -13 16 -21 21 -21
13z"/>
<path d="M2739 2358 c-5 -18 -6 -38 -1 -34 7 8 12 36 6 36 -2 0 -4 -1 -5 -2z"/>
<path d="M2256 2274 c-8 -21 -8 -24 4 -24 6 0 9 6 8 13 -2 6 3 11 10 9 8 -1
11 2 7 8 -9 15 -22 12 -29 -6z"/>
<path d="M1816 2247 c3 -10 9 -15 12 -12 3 3 0 11 -7 18 -10 9 -11 8 -5 -6z"/>
<path d="M2016 2247 c3 -10 9 -15 12 -12 3 3 0 11 -7 18 -10 9 -11 8 -5 -6z"/>
<path d="M2136 2247 c3 -10 9 -15 12 -12 3 3 0 11 -7 18 -10 9 -11 8 -5 -6z"/>
<path d="M2483 2245 c0 -8 4 -12 9 -9 5 3 6 10 3 15 -9 13 -12 11 -12 -6z"/>
<path d="M2593 2243 c1 -17 4 -19 14 -11 15 12 18 22 4 14 -5 -4 -11 0 -14 6
-3 7 -4 3 -4 -9z"/>
<path d="M3125 2250 c-3 -5 -5 -10 -3 -11 33 -8 38 -7 27 7 -14 17 -16 17 -24
4z"/>
<path d="M3245 2250 c-3 -5 -5 -10 -3 -11 33 -8 38 -7 27 7 -14 17 -16 17 -24
4z"/>
<path d="M3365 2250 c-3 -5 -5 -10 -3 -11 33 -8 38 -7 27 7 -14 17 -16 17 -24
4z"/>
<path d="M3470 2251 c0 -7 -5 -9 -12 -5 -7 5 -8 3 -3 -5 5 -9 10 -10 18 -2 6
6 8 14 4 18 -4 3 -7 1 -7 -6z"/>
<path d="M3546 2243 c-6 -14 -5 -15 5 -6 7 7 10 15 7 18 -3 3 -9 -2 -12 -12z"/>
<path d="M3633 2243 c1 -17 4 -19 14 -11 15 12 18 22 4 14 -5 -4 -11 0 -14 6
-3 7 -4 3 -4 -9z"/>
<path d="M3706 2243 c-6 -14 -5 -15 5 -6 7 7 10 15 7 18 -3 3 -9 -2 -12 -12z"/>
<path d="M3793 2243 c1 -17 4 -19 14 -11 15 12 18 22 4 14 -5 -4 -11 0 -14 6
-3 7 -4 3 -4 -9z"/>
<path d="M3839 2242 c-13 -15 -12 -16 3 -4 13 10 17 10 21 0 4 -9 6 -9 6 -1 2
20 -16 24 -30 5z"/>
<path d="M1895 2240 c-4 -6 -1 -9 7 -8 7 2 12 -3 10 -10 -1 -8 2 -11 8 -7 8 5
7 11 -1 21 -14 17 -16 17 -24 4z"/>
<path d="M2635 2240 c-3 -5 -1 -10 4 -10 6 0 11 5 11 10 0 6 -2 10 -4 10 -3 0
-8 -4 -11 -10z"/>
<path d="M3519 2248 c-5 -18 -6 -38 -1 -34 7 8 12 36 6 36 -2 0 -4 -1 -5 -2z"/>
<path d="M3675 2241 c-3 -5 -2 -12 3 -15 5 -3 9 1 9 9 0 17 -3 19 -12 6z"/>
<path d="M753 2195 c0 -8 4 -12 9 -9 5 3 6 10 3 15 -9 13 -12 11 -12 -6z"/>
<path d="M1534 2085 c-3 -8 -2 -20 2 -27 4 -7 -3 -4 -16 7 -13 11 -20 15 -17
9 8 -14 -20 -27 -28 -14 -10 15 -25 12 -25 -6 0 -8 -4 -13 -8 -10 -4 2 -9 -4
-9 -15 -1 -11 3 -17 9 -13 5 4 3 -5 -6 -19 -16 -23 -16 -26 -1 -41 9 -9 11
-16 5 -16 -7 0 -7 -7 1 -22 12 -22 11 -22 -6 -8 -17 14 -18 13 -9 -5 6 -11 9
-30 9 -42 -2 -15 2 -20 13 -15 9 3 13 1 9 -5 -8 -12 11 -12 31 0 7 5 12 4 12
-2 0 -13 22 -10 32 4 5 6 8 4 8 -5 0 -13 1 -13 10 0 9 13 10 13 10 0 0 -13 1
-13 10 0 9 13 10 13 10 0 0 -13 1 -13 10 0 9 13 11 13 20 0 9 -13 10 -13 10 0
0 13 1 13 10 0 9 -13 10 -13 10 0 0 13 1 13 10 0 9 -13 10 -13 10 0 0 13 1 13
10 0 9 -13 10 -13 10 0 0 13 1 13 10 0 9 -13 10 -13 10 0 0 13 1 13 10 0 9
-13 10 -13 10 0 0 13 1 13 10 0 9 -13 10 -13 10 0 0 13 1 13 10 0 9 -13 11
-13 20 0 9 13 10 13 10 0 0 -13 1 -13 10 0 9 13 10 13 10 0 0 -13 1 -13 10 0
9 13 10 13 10 0 0 -13 1 -13 10 0 9 13 11 13 20 0 9 -13 10 -13 10 0 0 13 1
13 10 0 9 -13 10 -13 10 0 0 13 1 13 10 0 9 -13 10 -13 10 0 0 13 1 13 10 0 9
-13 10 -13 10 0 0 13 1 13 10 0 9 -13 10 -13 10 0 0 13 1 13 10 0 9 -13 10
-13 10 0 0 13 1 13 10 0 9 -13 10 -13 10 0 0 13 1 13 10 0 9 -13 11 -13 20 0
9 13 10 13 10 0 0 -13 1 -13 10 0 9 13 10 13 10 0 0 -13 1 -13 10 0 9 13 10
13 10 0 0 -13 1 -13 10 0 9 13 11 13 20 0 9 -13 10 -13 10 0 0 13 1 13 10 0 9
-13 10 -13 10 0 0 13 1 13 10 0 9 -13 10 -13 10 0 0 13 1 13 10 0 9 -13 10
-13 10 0 0 13 1 13 10 0 9 -13 10 -13 10 0 0 13 1 13 10 0 9 -13 10 -13 10 0
0 13 1 13 10 0 9 -13 10 -13 10 0 0 13 1 13 10 0 9 -13 11 -13 20 0 9 13 10
13 10 0 0 -13 1 -13 10 0 9 13 10 13 10 0 0 -13 1 -13 10 0 9 13 10 13 10 0 0
-13 1 -13 10 0 9 13 11 13 20 0 9 -13 10 -13 10 0 0 13 1 13 10 0 9 -13 10
-13 10 0 0 13 1 13 10 0 9 -13 10 -13 10 0 0 13 1 13 10 0 9 -13 10 -13 10 0
0 13 1 13 10 0 9 -13 10 -13 10 0 0 13 1 13 10 0 9 -13 10 -13 10 0 0 13 1 13
10 0 9 -13 10 -13 10 0 0 13 1 13 10 0 9 -13 11 -13 20 0 9 13 10 13 10 0 0
-13 1 -13 10 0 9 13 10 13 10 0 0 -13 1 -13 10 0 9 13 10 13 10 0 0 -13 1 -13
10 0 9 13 11 13 20 0 9 -13 10 -13 10 0 0 13 1 13 10 0 9 -13 10 -13 10 0 0
13 1 13 10 0 9 -13 10 -13 10 0 0 13 1 13 10 0 9 -13 10 -13 10 0 0 13 1 13
10 0 9 -13 10 -13 10 0 0 13 1 13 10 0 9 -13 10 -13 10 0 0 13 1 13 10 0 9
-13 10 -13 10 0 0 13 1 13 10 0 9 -13 11 -13 20 0 9 13 10 13 10 0 0 -13 1
-13 10 0 9 13 10 13 10 0 0 -13 1 -13 10 0 9 13 10 13 10 0 0 -13 1 -13 10 0
9 13 11 13 20 0 9 -13 10 -13 10 0 0 13 1 13 10 0 9 -13 10 -13 10 0 0 13 1
13 10 0 9 -13 10 -13 10 0 0 13 1 13 10 0 9 -13 10 -13 10 0 0 13 1 13 10 0 9
-13 10 -13 10 0 0 13 1 13 10 0 9 -13 10 -13 10 0 0 13 1 13 10 0 9 -13 10
-13 10 0 0 13 1 13 10 0 9 -13 11 -13 20 0 9 13 10 13 10 0 0 -13 1 -13 10 0
9 13 10 13 10 0 0 -12 2 -13 9 -1 7 11 9 11 14 0 5 -12 6 -12 6 0 1 11 4 11
16 1 13 -11 14 -10 8 6 -6 17 -5 18 13 4 10 -8 16 -10 12 -6 -4 5 -3 15 3 22
7 8 6 14 -2 20 -7 4 -9 3 -6 -3 3 -5 0 -10 -8 -10 -8 0 -15 4 -15 8 0 11 31
20 43 12 7 -4 6 1 -2 10 -7 9 -10 17 -5 17 5 0 1 5 -9 11 -16 9 -17 13 -5 27
18 21 17 40 -2 52 -13 8 -13 11 -1 22 8 7 11 8 8 2 -4 -7 -1 -14 7 -17 10 -4
12 0 9 14 -3 11 -13 19 -22 18 -9 -1 -23 -1 -31 0 -13 1 -13 2 0 11 18 12
-164 7 -192 -5 -11 -4 -18 -3 -18 5 0 6 5 8 12 4 7 -4 8 -3 4 4 -4 7 -15 8
-30 2 -16 -6 -28 -5 -36 3 -10 10 -12 8 -6 -7 7 -19 6 -19 -13 -2 -11 10 -18
23 -14 29 3 6 1 7 -6 3 -9 -6 -9 -11 -1 -21 8 -9 6 -14 -6 -19 -21 -8 -24 -8
-24 5 0 5 6 7 13 3 6 -4 3 2 -7 14 -21 24 -36 31 -17 8 20 -24 -21 -26 -48 -2
l-24 21 19 -30 18 -30 -24 20 c-13 11 -20 15 -17 9 4 -7 0 -15 -9 -18 -8 -3
-13 -2 -10 3 3 4 -4 17 -17 27 -12 10 -16 12 -9 4 6 -8 12 -17 12 -20 0 -10
-184 -5 -200 5 -8 5 -11 4 -7 -2 4 -6 0 -14 -9 -17 -21 -8 -24 -8 -24 5 0 5 4
8 8 5 4 -2 8 4 8 15 0 17 -2 18 -11 6 -16 -23 -50 -26 -49 -5 1 10 -3 15 -8
12 -5 -4 -7 -15 -5 -26 5 -19 5 -19 -15 -1 -12 10 -18 13 -15 7 4 -7 0 -15 -9
-18 -21 -8 -24 -8 -24 5 0 5 4 8 8 5 5 -3 9 1 9 9 0 16 -13 20 -19 6 -1 -5
-12 -11 -23 -13 -14 -2 -20 2 -19 14 1 10 -3 15 -8 12 -5 -4 -7 -15 -5 -26 5
-19 5 -19 -15 -1 -12 10 -18 13 -15 7 4 -7 0 -15 -9 -18 -21 -8 -24 -8 -24 5
0 5 4 8 8 5 5 -3 9 1 9 9 0 8 -4 15 -9 15 -4 0 -8 -4 -8 -10 0 -5 -7 -10 -16
-10 -8 0 -12 -5 -8 -11 4 -8 1 -8 -12 -2 -11 5 -80 9 -154 8 -74 -1 -145 2
-158 7 -13 4 -21 4 -18 -1 3 -5 -1 -12 -10 -15 -21 -8 -24 -8 -24 5 0 5 4 8 8
5 4 -2 8 4 8 15 0 17 -2 18 -11 6 -16 -23 -50 -26 -49 -5 1 10 -3 15 -8 12 -5
-4 -7 -15 -5 -26 5 -19 5 -19 -15 -1 -12 10 -18 13 -15 7 4 -7 0 -15 -9 -18
-21 -8 -24 -8 -24 5 0 5 4 8 8 5 5 -3 9 1 9 9 0 16 -13 20 -19 6 -1 -5 -12
-11 -23 -13 -14 -2 -20 2 -19 15 2 21 -5 22 -12 2z"/>
<path d="M2069 2083 c-13 -16 -12 -17 4 -4 9 7 17 15 17 17 0 8 -8 3 -21 -13z"/>
<path d="M2856 2087 c3 -10 9 -15 12 -12 3 3 0 11 -7 18 -10 9 -11 8 -5 -6z"/>
<path d="M3311 2086 c-9 -10 -9 -16 -1 -21 6 -4 14 -4 17 -1 4 3 1 6 -7 6 -10
0 -10 3 0 15 7 8 10 15 7 15 -2 0 -10 -6 -16 -14z"/>
<path d="M3816 2087 c3 -10 9 -15 12 -12 3 3 0 11 -7 18 -10 9 -11 8 -5 -6z"/>
<path d="M3935 2091 c-3 -5 0 -13 6 -17 8 -4 7 -9 -2 -15 -19 -12 -29 -11 -29
2 0 5 5 7 12 3 6 -4 8 -3 5 4 -4 5 -16 8 -27 5 -11 -3 -18 -8 -16 -12 3 -4 -4
-7 -15 -7 -25 0 -24 13 2 21 11 4 18 9 16 12 -3 2 -24 -5 -47 -17 -23 -12 -39
-17 -36 -11 4 5 2 12 -4 16 -5 3 -10 1 -10 -5 0 -6 -5 -8 -12 -4 -8 5 -9 2 -5
-9 6 -16 4 -16 -16 -2 -21 14 -23 13 -24 -8 -2 -17 0 -18 7 -7 7 11 9 10 7 -8
-1 -25 -7 -27 -26 -9 -11 10 -12 9 -5 -3 14 -24 16 -52 2 -44 -6 4 -8 3 -4 -4
3 -6 15 -9 26 -7 12 2 18 0 15 -6 -4 -5 -12 -9 -20 -9 -8 0 -16 -4 -20 -9 -3
-6 4 -8 16 -6 17 3 19 2 9 -10 -7 -8 -10 -21 -7 -29 3 -7 1 -18 -5 -24 -13
-13 9 -11 32 3 10 5 9 1 -3 -12 -14 -16 -15 -23 -6 -29 8 -4 10 -3 5 4 -4 7
-2 12 3 12 6 0 11 -6 11 -12 0 -10 3 -9 9 1 6 9 10 10 16 2 5 -9 10 -9 21 0
11 9 14 8 14 -2 0 -11 2 -11 10 1 9 13 10 13 10 0 0 -13 1 -13 10 0 9 13 10
13 10 0 0 -13 1 -13 10 0 9 13 10 13 10 0 0 -13 1 -13 10 0 9 13 10 13 10 0 0
-13 1 -13 10 0 9 13 10 13 10 0 0 -13 1 -13 10 0 9 13 10 13 10 0 0 -13 1 -13
10 0 9 13 10 13 10 0 0 -13 1 -13 10 0 9 13 10 13 10 0 0 -13 1 -13 10 0 9 13
10 13 10 0 0 -13 1 -13 10 0 9 13 10 13 10 0 0 -13 1 -13 10 0 9 13 10 13 10
0 0 -13 1 -13 10 0 9 13 10 13 10 0 0 -13 1 -13 10 0 9 13 10 13 10 0 0 -13 1
-13 10 0 9 13 10 13 10 0 0 -13 1 -13 10 0 9 13 10 13 10 0 0 -13 1 -13 10 0
9 13 10 13 10 0 0 -13 1 -13 10 0 9 13 10 13 10 0 0 -13 1 -13 10 0 9 13 10
13 10 0 0 -13 1 -13 10 0 9 13 10 13 10 0 0 -13 1 -13 10 0 9 13 10 13 10 0 0
-13 1 -13 10 0 9 13 10 13 10 0 0 -13 1 -13 10 0 9 13 10 13 10 0 0 -13 1 -13
10 0 9 13 10 13 10 0 0 -13 1 -13 10 0 9 13 10 13 10 0 0 -13 1 -13 10 0 9 13
10 13 10 0 0 -13 1 -13 10 0 9 13 10 13 10 0 0 -13 1 -13 10 0 9 13 10 13 10
0 0 -13 1 -13 10 0 9 13 10 13 10 0 0 -13 1 -13 10 0 9 13 10 13 10 0 0 -13 1
-13 10 0 9 13 10 13 10 0 0 -13 1 -13 10 0 9 13 10 13 10 0 0 -12 2 -13 9 -1
7 11 9 11 14 0 4 -12 7 -11 16 1 10 13 11 13 11 0 0 -13 1 -13 10 0 9 13 10
13 10 0 0 -13 1 -13 10 0 9 13 10 13 10 0 0 -13 1 -13 10 0 5 8 10 11 10 6 0
-5 7 -3 15 4 13 11 14 10 10 -2 -4 -9 0 -15 8 -15 12 0 15 23 16 116 1 63 -1
112 -5 109 -3 -4 -15 3 -25 15 -13 17 -20 19 -29 10 -9 -8 -8 -11 5 -10 10 1
20 -5 22 -13 4 -12 3 -12 -5 -1 -7 10 -14 10 -30 2 -15 -8 -23 -8 -28 1 -5 7
-3 8 6 3 9 -5 11 -4 6 3 -5 9 -13 9 -27 1 -15 -8 -24 -7 -37 3 -14 11 -15 11
-9 -6 6 -16 5 -17 -8 -6 -12 10 -13 16 -3 29 12 14 11 14 -4 2 -10 -7 -16 -17
-13 -21 3 -4 -2 -11 -11 -14 -21 -8 -24 -8 -24 5 0 5 5 7 12 3 7 -4 8 -3 4 4
-4 8 -15 8 -31 2 -17 -6 -27 -5 -35 6 -7 7 -17 14 -22 14 -5 0 -2 -7 6 -16 24
-24 19 -28 -11 -9 -25 17 -26 17 -19 -1 7 -17 6 -17 -13 0 -11 10 -18 23 -14
29 3 6 1 7 -6 3 -9 -6 -9 -11 -1 -21 8 -9 6 -14 -6 -19 -21 -8 -24 -8 -24 5 0
5 5 7 12 3 6 -4 8 -3 5 4 -4 5 -16 8 -27 5 -11 -3 -18 -8 -16 -12 3 -4 -4 -7
-15 -7 -25 0 -24 13 2 21 11 4 18 9 15 12 -3 3 -16 -1 -29 -10 -19 -12 -27
-13 -37 -4 -10 10 -12 8 -6 -7 5 -16 4 -17 -9 -6 -12 10 -13 16 -3 29 12 14
11 14 -4 2 -10 -7 -16 -17 -13 -21 3 -4 -2 -11 -11 -14 -21 -8 -24 -8 -24 5 0
5 5 7 12 3 7 -4 8 -3 4 4 -4 8 -15 8 -31 2 -17 -6 -27 -5 -35 6 -7 7 -17 14
-22 14 -5 0 -2 -7 6 -16 24 -24 19 -28 -11 -9 -25 17 -26 17 -19 -1 7 -17 6
-17 -13 0 -11 10 -18 23 -15 27 3 5 3 9 0 9 -3 0 -7 -4 -11 -9z"/>
<path d="M4489 2083 c-13 -16 -12 -17 4 -4 16 13 21 21 13 21 -2 0 -10 -8 -17
-17z"/>
<path d="M1470 2081 c0 -6 4 -12 8 -15 5 -3 9 1 9 9 0 8 -4 15 -9 15 -4 0 -8
-4 -8 -9z"/>
<path d="M1776 2078 c3 -4 11 -5 19 -1 21 7 19 12 -4 10 -11 0 -18 -5 -15 -9z"/>
<path d="M1856 2078 c3 -4 11 -5 19 -1 21 7 19 12 -4 10 -11 0 -18 -5 -15 -9z"/>
<path d="M1936 2078 c3 -4 11 -5 19 -1 21 7 19 12 -4 10 -11 0 -18 -5 -15 -9z"/>
<path d="M2016 2078 c3 -4 11 -5 19 -1 21 7 19 12 -4 10 -11 0 -18 -5 -15 -9z"/>
<path d="M2416 2078 c3 -4 11 -5 19 -1 21 7 19 12 -4 10 -11 0 -18 -5 -15 -9z"/>
<path d="M2496 2078 c3 -4 11 -5 19 -1 21 7 19 12 -4 10 -11 0 -18 -5 -15 -9z"/>
<path d="M2546 2082 c-3 -5 1 -9 9 -9 8 0 12 4 9 9 -3 4 -7 8 -9 8 -2 0 -6 -4
-9 -8z"/>
<path d="M2905 2080 c-3 -6 1 -7 9 -4 18 7 21 14 7 14 -6 0 -13 -4 -16 -10z"/>
<path d="M3054 2070 c0 -13 4 -16 10 -10 7 7 7 13 0 20 -6 6 -10 3 -10 -10z"/>
<path d="M3376 2078 c3 -4 11 -5 19 -1 21 7 19 12 -4 10 -11 0 -18 -5 -15 -9z"/>
<path d="M3413 2073 c-15 -10 -27 -11 -47 -3 -18 6 -25 6 -21 0 3 -6 0 -11 -7
-12 -7 0 -17 -2 -23 -2 -19 -3 -35 -17 -30 -27 3 -5 0 -6 -8 -3 -8 3 -18 0
-23 -7 -4 -8 -3 -10 4 -5 7 4 12 1 12 -8 0 -9 6 -16 13 -16 8 0 8 -3 1 -8 -18
-12 -40 -77 -22 -66 6 4 9 -4 7 -17 -2 -13 1 -34 5 -47 7 -22 8 -23 23 -5 8
10 12 13 9 6 -4 -6 -2 -14 4 -18 5 -3 10 0 10 7 0 9 3 9 10 -2 9 -13 10 -13
10 0 0 13 1 13 10 0 9 -13 11 -13 20 0 9 13 10 13 10 0 0 -13 1 -13 10 0 9 13
10 13 10 0 0 -13 1 -13 10 0 9 13 10 13 10 0 0 -9 3 -11 8 -5 9 13 32 18 32 7
0 -5 7 -9 15 -9 8 0 12 4 9 9 -7 11 10 10 22 -1 5 -6 16 -4 28 5 11 8 14 14 8
14 -7 0 -12 5 -12 10 0 7 7 7 23 0 20 -10 20 -10 5 3 -14 11 -15 16 -5 27 8 9
9 11 0 6 -21 -11 -19 28 2 47 11 9 16 17 10 16 -23 -3 -31 2 -32 22 -2 21 -1
21 13 3 9 -11 12 -13 8 -5 -4 8 -7 27 -8 44 -1 31 -27 45 -51 28 -5 -4 -16 -6
-22 -5 -7 1 -22 2 -34 3 -11 0 -17 6 -14 11 4 6 10 8 15 5 5 -3 11 -2 14 3 8
13 -18 10 -41 -5z m124 -32 c0 -11 -5 -18 -9 -15 -4 3 -5 11 -1 19 7 21 12 19
10 -4z m-252 -98 c-2 -10 -4 -19 -4 -21 -1 -2 -6 0 -11 3 -8 5 -7 11 1 21 15
18 18 18 14 -3z m258 10 c-7 -2 -19 -2 -25 0 -7 3 -2 5 12 5 14 0 19 -2 13 -5z
m-255 -98 c-3 -3 -9 2 -12 12 -6 14 -5 15 5 6 7 -7 10 -15 7 -18z m237 6 c3
-5 2 -12 -3 -15 -5 -3 -9 1 -9 9 0 17 3 19 12 6z"/>
<path d="M3467 2077 c-3 -8 1 -14 9 -14 8 0 14 6 14 14 0 7 -4 13 -9 13 -5 0
-11 -6 -14 -13z"/>
<path d="M3276 2053 c-6 -14 -5 -15 5 -6 7 7 10 15 7 18 -3 3 -9 -2 -12 -12z"/>
<path d="M3250 1979 c0 -5 5 -7 10 -4 6 3 10 8 10 11 0 2 -4 4 -10 4 -5 0 -10
-5 -10 -11z"/>
<path d="M915 1680 c-4 -6 -11 -8 -16 -5 -5 4 -9 1 -9 -4 0 -16 16 -13 30 4 7
8 10 15 7 15 -3 0 -9 -5 -12 -10z"/>
<path d="M1715 1680 c-4 -6 -11 -8 -16 -5 -5 4 -9 1 -9 -4 0 -16 16 -13 30 4
7 8 10 15 7 15 -3 0 -9 -5 -12 -10z"/>
<path d="M1950 1681 c0 -7 -4 -9 -10 -6 -5 3 -10 1 -10 -4 0 -6 4 -11 9 -11
13 0 25 20 17 27 -3 4 -6 1 -6 -6z"/>
<path d="M2195 1680 c-4 -6 -11 -8 -16 -5 -5 4 -9 1 -9 -4 0 -16 16 -13 30 4
7 8 10 15 7 15 -3 0 -9 -5 -12 -10z"/>
<path d="M2377 1683 c-10 -9 -9 -23 1 -23 5 0 9 7 9 15 0 17 -1 18 -10 8z"/>
<path d="M2680 1680 c0 -6 -5 -8 -12 -4 -7 4 -8 3 -4 -5 4 -6 13 -8 19 -5 7 4
9 3 4 -1 -10 -11 -48 -14 -41 -3 3 4 0 8 -5 8 -6 0 -11 -12 -11 -26 0 -17 -4
-23 -12 -18 -10 6 -10 4 0 -8 10 -13 10 -18 1 -24 -9 -5 -7 -11 6 -21 13 -8
14 -13 5 -13 -7 0 -10 -3 -7 -7 4 -3 1 -13 -6 -21 -7 -10 -8 -13 -1 -9 7 4 12
-2 12 -18 0 -14 -5 -22 -10 -19 -6 4 -3 -5 6 -18 9 -14 13 -28 9 -31 -8 -8 -5
-9 75 -11 48 -2 65 1 72 13 8 14 9 13 10 -3 0 -16 2 -17 17 -5 14 12 16 12 9
0 -6 -9 -5 -12 5 -9 8 3 13 12 11 19 -2 11 1 11 10 -1 7 -8 19 -16 26 -17 16
-4 16 14 0 19 -8 3 -6 7 5 11 9 3 16 3 16 -1 -5 -31 3 -35 22 -12 18 23 19 23
9 3 -13 -27 4 -32 19 -5 9 14 10 15 11 1 0 -18 28 -21 48 -6 7 6 12 6 12 0 0
-16 80 -10 90 7 8 13 10 12 10 -4 0 -16 2 -17 17 -5 14 12 16 12 9 0 -6 -9 -5
-12 5 -9 8 3 13 12 11 19 -2 11 1 11 10 -1 7 -8 19 -16 26 -18 16 -3 16 15 0
20 -8 3 -6 7 5 11 9 3 16 3 16 -1 -5 -31 3 -35 22 -12 18 23 19 23 9 3 -13
-27 4 -32 19 -5 9 14 10 15 11 1 0 -18 28 -21 48 -6 7 6 12 6 12 0 0 -16 80
-10 90 7 8 13 10 12 10 -4 0 -16 2 -17 17 -5 14 12 16 12 9 0 -6 -9 -5 -12 5
-9 8 3 13 12 11 19 -2 11 1 11 10 -1 7 -8 19 -16 26 -17 16 -4 16 14 0 19 -8
3 -6 7 5 11 9 3 16 3 16 -1 -5 -31 3 -35 22 -12 18 23 19 23 9 3 -13 -27 4
-32 19 -5 9 14 10 15 11 1 0 -18 28 -21 48 -6 7 6 12 6 12 0 0 -5 19 -9 43 -8
31 1 41 5 39 15 -2 13 0 13 10 0 7 -8 25 -16 40 -16 24 -1 26 1 17 17 -9 18
-5 23 14 20 11 -2 8 24 -5 38 -9 10 -9 12 -1 7 6 -3 14 -2 18 4 3 5 1 10 -4
10 -6 0 -11 7 -11 15 0 8 5 15 12 15 9 0 9 3 0 12 -7 7 -8 17 -1 30 5 10 6 18
1 18 -4 0 -7 14 -6 31 1 17 0 28 -4 25 -3 -3 -12 0 -20 7 -13 9 -14 9 -8 0 10
-17 -5 -16 -31 2 -14 10 -24 12 -28 5 -6 -10 1 -14 20 -10 5 1 7 -2 2 -6 -9
-9 -48 -13 -42 -4 2 3 -5 12 -17 19 -14 9 -18 9 -13 1 6 -9 -5 -11 -39 -9 -31
3 -45 0 -42 -7 2 -6 -2 -11 -10 -11 -8 0 -13 6 -10 13 3 7 -2 10 -15 7 -10 -3
-16 -9 -13 -14 3 -5 -2 -6 -10 -3 -8 3 -12 13 -9 22 3 12 2 13 -4 5 -5 -7 -19
-11 -31 -8 -12 2 -22 -1 -22 -7 0 -5 7 -8 15 -5 8 4 17 3 19 -2 3 -4 -8 -7
-24 -7 -16 0 -27 3 -24 7 2 4 -21 9 -51 11 -37 2 -54 -1 -51 -8 2 -6 -2 -11
-10 -11 -8 0 -13 6 -10 13 3 7 -2 10 -15 7 -10 -3 -16 -9 -13 -14 3 -5 -2 -6
-10 -3 -9 3 -13 11 -9 17 3 5 1 7 -5 3 -6 -3 -13 -2 -17 4 -4 6 -11 8 -16 4
-14 -8 0 -26 14 -18 7 4 9 3 4 -1 -9 -11 -48 -14 -42 -4 3 4 -2 10 -11 13 -21
8 -24 8 -24 -5 0 -5 6 -7 13 -3 6 4 8 3 4 -1 -13 -15 -39 -15 -34 0 4 9 -1 11
-14 8 -10 -3 -16 -9 -13 -14 3 -5 -2 -6 -10 -3 -9 3 -13 11 -9 17 3 5 1 7 -5
3 -6 -3 -13 -2 -17 4 -4 6 -11 8 -16 4 -14 -8 0 -26 14 -18 7 4 9 3 4 -1 -9
-10 -48 -15 -42 -5 2 3 -5 12 -17 19 -14 9 -18 9 -13 1 6 -9 -5 -11 -39 -9
-31 3 -45 0 -42 -7 2 -6 -2 -11 -10 -11 -8 0 -13 6 -10 13 3 7 -2 10 -15 7
-10 -3 -16 -9 -13 -14 3 -5 -2 -6 -10 -3 -8 3 -12 13 -9 22 3 12 2 13 -4 5 -5
-7 -19 -11 -31 -8 -12 2 -22 -1 -22 -7 0 -5 7 -8 15 -5 8 4 17 3 19 -2 3 -4
-8 -7 -24 -7 -16 0 -27 3 -24 8 8 13 -91 9 -105 -4 -8 -7 -11 -8 -9 -3 3 6 0
16 -8 23 -9 8 -14 9 -14 2z m1130 -40 c0 -5 -2 -10 -4 -10 -3 0 -8 5 -11 10
-3 6 -1 10 4 10 6 0 11 -4 11 -10z m-1123 -195 c0 -8 -4 -12 -9 -9 -5 3 -6 10
-3 15 9 13 12 11 12 -6z m36 0 c-3 -9 -8 -14 -10 -11 -3 3 -2 9 2 15 9 16 15
13 8 -4z m40 -6 c-8 -8 -13 -7 -18 2 -5 8 -4 10 3 5 7 -4 12 -2 12 5 0 7 3 9
7 6 4 -4 2 -12 -4 -18z m219 7 c7 4 8 2 4 -5 -9 -13 -26 -5 -25 12 0 9 2 8 6
-1 2 -6 10 -9 15 -6z m65 -1 c0 -8 -4 -12 -9 -9 -5 3 -6 10 -3 15 9 13 12 11
12 -6z m36 -6 c-8 -8 -13 -7 -18 2 -5 8 -4 10 3 5 7 -4 12 -2 12 5 0 7 3 9 7
6 4 -4 2 -12 -4 -18z m219 7 c7 4 8 2 4 -5 -9 -13 -26 -5 -25 12 0 9 2 8 6 -1
2 -6 10 -9 15 -6z m65 -1 c0 -8 -4 -12 -9 -9 -5 3 -6 10 -3 15 9 13 12 11 12
-6z m36 -6 c-8 -8 -13 -7 -18 2 -5 8 -4 10 3 5 7 -4 12 -2 12 5 0 7 3 9 7 6 4
-4 2 -12 -4 -18z m219 7 c7 4 8 2 4 -5 -9 -13 -26 -5 -25 12 0 9 2 8 6 -1 2
-6 10 -9 15 -6z m158 -8 c0 -6 -6 -5 -15 2 -8 7 -15 14 -15 16 0 2 7 1 15 -2
8 -4 15 -11 15 -16z m-80 6 c0 -8 -19 -13 -24 -6 -3 5 1 9 9 9 8 0 15 -2 15
-3z"/>
<path d="M3830 1641 c0 -6 4 -13 10 -16 6 -3 7 1 4 9 -7 18 -14 21 -14 7z"/>
<path d="M3828 1533 c7 -3 16 -2 19 1 4 3 -2 6 -13 5 -11 0 -14 -3 -6 -6z"/>
<path d="M2415 1440 c3 -5 8 -10 11 -10 2 0 4 5 4 10 0 6 -5 10 -11 10 -5 0
-7 -4 -4 -10z"/>
</g>
</svg>
