<?xml version="1.0" encoding="utf-8"?>
<!-- Generator: Adobe Illustrator 25.1.0, SVG Export Plug-In . SVG Version: 6.00 Build 0)  -->
<svg version="1.1" id="Layer_1" xmlns="http://www.w3.org/2000/svg" xmlns:xlink="http://www.w3.org/1999/xlink" x="0px" y="0px"
	 viewBox="0 0 800 54" style="enable-background:new 0 0 800 54;" xml:space="preserve">
<style type="text/css">
	.st0{fill-rule:evenodd;clip-rule:evenodd;fill:#D8A55B;}
	.st1{fill-rule:evenodd;clip-rule:evenodd;fill:#515F6D;}
	.st2{fill-rule:evenodd;clip-rule:evenodd;fill:#D7734B;}
	.st3{fill-rule:evenodd;clip-rule:evenodd;fill:#C0BCBB;}
	.st4{fill-rule:evenodd;clip-rule:evenodd;fill:#6696AC;}
	.st5{fill-rule:evenodd;clip-rule:evenodd;fill:#D36D75;}
	.st6{fill-rule:evenodd;clip-rule:evenodd;fill:#AA81AC;}
	.st7{fill-rule:evenodd;clip-rule:evenodd;fill:#A6BB75;}
	.st8{fill:#6696AC;}
	.st9{fill:#6696AC;stroke:#6696AC;stroke-miterlimit:10;}
</style>
<desc>Created with Sketch.</desc>
<g id="Graphic-Export">
	<g id="exports" transform="translate(-1074.000000, -1700.000000)">
		<g id="hoc_icon_color" transform="translate(1074.000000, 1700.000000)">
			<g id="Layer_1_1_">
				<rect id="Rectangle-path" x="401.4" y="49.2" class="st0" width="28.2" height="5.3"/>
				<rect id="Rectangle-path_1_" x="373.2" y="39.6" class="st1" width="38.7" height="5.3"/>
				<rect id="Rectangle-path_2_" x="379.4" y="29.9" class="st2" width="13.4" height="5.3"/>
				<rect id="Rectangle-path_3_" x="397.6" y="29.9" class="st3" width="6.2" height="5.3"/>
				<rect id="Rectangle-path_4_" x="416.7" y="39.6" class="st4" width="6.2" height="5.3"/>
				<rect id="Rectangle-path_5_" x="427.7" y="39.6" class="st5" width="20.6" height="5.3"/>
				<rect id="Rectangle-path_6_" x="408.6" y="29.9" class="st6" width="25.3" height="5.3"/>
				<rect id="Rectangle-path_7_" x="412" y="20.3" class="st7" width="15.8" height="5.3"/>
				<rect id="Rectangle-path_8_" x="402.4" y="10.7" class="st4" width="12.4" height="5.3"/>
				<rect id="Rectangle-path_9_" x="419.6" y="10.7" class="st5" width="19.1" height="5.3"/>
				<rect id="Rectangle-path_10_" x="373.2" y="20.3" class="st1" width="34" height="5.3"/>
				<rect id="Rectangle-path_11_" x="392.8" y="1.1" class="st3" width="34.9" height="5.3"/>
				<rect id="Rectangle-path_12_" x="382.8" y="10.7" class="st0" width="14.8" height="5.3"/>
				<polygon id="Shape" class="st1" points="396.6,54.5 351.7,54.5 351.7,22.5 377.4,1.1 388,1.1 388,6.4 379.3,6.4 357,25 
					357,49.2 396.6,49.2 				"/>
			</g>
		</g>
	</g>
</g>
<g>
	<path class="st8" d="M317.7,47.9c-0.9,0-1.8-0.1-2.5-0.4s-1.4-0.7-2-1.1s-1.1-1-1.5-1.7c-0.4-0.6-0.8-1.3-1.1-2.1s-0.5-1.5-0.6-2.2
		s-0.2-1.5-0.2-2.3v-3.4c0-1.9-0.4-3.2-1.3-4c-0.9-0.8-2.2-1.2-4-1.2v-4.2c1.8,0,3.1-0.4,4-1.2c0.9-0.8,1.3-2.2,1.3-4.1v-3.4
		c0-0.7,0.1-1.5,0.2-2.2c0.1-0.8,0.3-1.5,0.6-2.2c0.3-0.7,0.6-1.4,1-2c0.4-0.6,0.9-1.2,1.5-1.7c0.6-0.5,1.3-0.9,2.1-1.1
		c0.8-0.3,1.7-0.4,2.6-0.4l0.7,3.3c-0.9,0-1.5,0.2-2,0.5c-0.5,0.4-0.8,0.9-1,1.5s-0.3,1.3-0.4,2.1c0,0.8-0.1,1.5-0.1,2.3V20
		c0,1.7-0.4,3.1-1.2,4.4c-0.8,1.3-2.1,2.3-3.8,2.9c1.7,0.7,3,1.6,3.8,2.9s1.2,2.7,1.2,4.4v3.4c0,0.8,0,1.5,0.1,2.3
		c0.1,0.8,0.3,1.5,0.5,2.1s0.6,1.1,1,1.5c0.4,0.4,1,0.6,1.7,0.5L317.7,47.9z"/>
</g>
<g>
	<path class="st8" d="M486.5,44.6c0.7,0,1.3-0.2,1.7-0.5c0.4-0.4,0.8-0.9,1-1.5s0.4-1.3,0.5-2.1c0.1-0.8,0.1-1.5,0.1-2.3v-3.4
		c0-1.7,0.4-3.1,1.2-4.4s2.1-2.2,3.8-2.9c-1.7-0.7-3-1.7-3.8-2.9c-0.8-1.3-1.2-2.8-1.2-4.4v-3.4c0-0.8,0-1.5-0.1-2.3
		c0-0.8-0.2-1.5-0.4-2.1s-0.5-1.1-1-1.5c-0.5-0.4-1.1-0.6-2-0.5l0.7-3.3c1,0,1.9,0.1,2.6,0.4c0.8,0.3,1.5,0.7,2.1,1.1
		c0.6,0.5,1.1,1,1.5,1.7c0.4,0.6,0.8,1.3,1,2c0.3,0.7,0.5,1.5,0.6,2.2c0.1,0.8,0.2,1.5,0.2,2.2V20c0,1.9,0.4,3.2,1.3,4.1
		c0.9,0.8,2.2,1.2,4,1.2v4.2c-1.8,0-3.1,0.4-4,1.2c-0.9,0.8-1.3,2.1-1.3,4v3.4c0,0.7-0.1,1.5-0.2,2.3s-0.3,1.5-0.6,2.2
		s-0.6,1.4-1.1,2.1c-0.4,0.6-0.9,1.2-1.5,1.7s-1.3,0.9-2,1.1s-1.6,0.4-2.5,0.4L486.5,44.6z"/>
</g>
<line class="st9" x1="257" y1="27.8" x2="0" y2="27.8"/>
<line class="st9" x1="800" y1="27.8" x2="543" y2="27.8"/>
</svg>
