<svg xmlns="http://www.w3.org/2000/svg" viewBox="0 0 800 27.5"><defs><style>.cls-1{fill:#d8a55b;}.cls-2,.cls-9{fill:#515f6d;}.cls-3{fill:#d7734b;}.cls-4{fill:#c0bcbb;}.cls-5{fill:#6696ac;}.cls-6{fill:#d36d75;}.cls-7{fill:#aa81ac;}.cls-8{fill:#a6bb75;}.cls-9{fill-rule:evenodd;}.cls-10{fill:none;stroke:#6696ac;stroke-miterlimit:10;}</style></defs><g id="Layer_2" data-name="Layer 2"><g id="Layer_1-2" data-name="Layer 1"><g id="Graphic-Export"><g id="exports"><g id="hoc_icon_color" data-name="hoc icon color"><g id="Layer_1-3" data-name="Layer 1"><rect id="Rectangle-path" class="cls-1" x="399.49" y="24.77" width="14.52" height="2.73"/><rect id="Rectangle-path-2" data-name="Rectangle-path" class="cls-2" x="384.96" y="19.83" width="19.93" height="2.73"/><rect id="Rectangle-path-3" data-name="Rectangle-path" class="cls-3" x="388.16" y="14.83" width="6.9" height="2.73"/><rect id="Rectangle-path-4" data-name="Rectangle-path" class="cls-4" x="397.53" y="14.83" width="3.19" height="2.73"/><rect id="Rectangle-path-5" data-name="Rectangle-path" class="cls-5" x="407.36" y="19.83" width="3.19" height="2.73"/><rect id="Rectangle-path-6" data-name="Rectangle-path" class="cls-6" x="413.03" y="19.83" width="10.61" height="2.73"/><rect id="Rectangle-path-7" data-name="Rectangle-path" class="cls-7" x="403.19" y="14.83" width="13.03" height="2.73"/><rect id="Rectangle-path-8" data-name="Rectangle-path" class="cls-8" x="404.94" y="9.89" width="8.14" height="2.73"/><rect id="Rectangle-path-9" data-name="Rectangle-path" class="cls-5" x="400" y="4.94" width="6.39" height="2.73"/><rect id="Rectangle-path-10" data-name="Rectangle-path" class="cls-6" x="408.86" y="4.94" width="9.84" height="2.73"/><rect id="Rectangle-path-11" data-name="Rectangle-path" class="cls-2" x="384.96" y="9.89" width="17.51" height="2.73"/><rect id="Rectangle-path-12" data-name="Rectangle-path" class="cls-4" x="395.06" width="17.97" height="2.73"/><rect id="Rectangle-path-13" data-name="Rectangle-path" class="cls-1" x="389.91" y="4.94" width="7.62" height="2.73"/><polygon id="Shape" class="cls-9" points="397.01 27.5 373.89 27.5 373.89 11.02 387.13 0 392.58 0 392.58 2.73 388.1 2.73 376.62 12.31 376.62 24.77 397.01 24.77 397.01 27.5"/></g></g></g></g><path class="cls-5" d="M356.38,24.1a3.5,3.5,0,0,1-1.29-.2,7.81,7.81,0,0,1-1-.57,2.65,2.65,0,0,1-.77-.88,6.06,6.06,0,0,1-.57-1.08,5.44,5.44,0,0,1-.3-1.13,7.3,7.3,0,0,1-.11-1.19V17.3a2.6,2.6,0,0,0-.67-2.06,3,3,0,0,0-2.06-.61V12.46a2.94,2.94,0,0,0,2.06-.62,2.7,2.7,0,0,0,.67-2.11V8a7.21,7.21,0,0,1,.11-1.13,4.18,4.18,0,0,1,.3-1.13,6.62,6.62,0,0,1,.52-1,4.23,4.23,0,0,1,.77-.88,2.81,2.81,0,0,1,1.08-.57,4,4,0,0,1,1.34-.2l.36,1.7a1.86,1.86,0,0,0-1,.26,1.57,1.57,0,0,0-.51.77A5.91,5.91,0,0,0,355,6.85c0,.41-.05.77-.05,1.18v1.7a4.17,4.17,0,0,1-.62,2.27,3.65,3.65,0,0,1-1.95,1.49,3.92,3.92,0,0,1,1.95,1.5,4.16,4.16,0,0,1,.62,2.26V19a9.48,9.48,0,0,0,.05,1.19,5.71,5.71,0,0,0,.26,1.08,2,2,0,0,0,.51.77,1,1,0,0,0,.88.26Z"/><path class="cls-5" d="M443.31,22.4a1.46,1.46,0,0,0,.88-.26,2,2,0,0,0,.51-.77,5.71,5.71,0,0,0,.26-1.08,9.32,9.32,0,0,0,.05-1.18V17.35a4.16,4.16,0,0,1,.62-2.26,3.91,3.91,0,0,1,1.95-1.49,4.22,4.22,0,0,1-1.95-1.5A4.29,4.29,0,0,1,445,9.84V8.09A9.4,9.4,0,0,0,445,6.9a3.45,3.45,0,0,0-.21-1.08,1.57,1.57,0,0,0-.51-.77,1.3,1.3,0,0,0-1-.26l.36-1.7a3.4,3.4,0,0,1,1.34.21,5.46,5.46,0,0,1,1.08.56,3.26,3.26,0,0,1,.77.88,4,4,0,0,1,.52,1,4.73,4.73,0,0,1,.3,1.13A7.83,7.83,0,0,1,447.69,8v1.7a2.78,2.78,0,0,0,.67,2.11,2.94,2.94,0,0,0,2.06.62v2.17a3,3,0,0,0-2.06.61,2.6,2.6,0,0,0-.67,2.06v1.75a8.63,8.63,0,0,1-.11,1.19,4.18,4.18,0,0,1-.3,1.13,5.63,5.63,0,0,1-.57,1.08,4.23,4.23,0,0,1-.77.88,3,3,0,0,1-1,.57,5,5,0,0,1-1.29.2Z"/><line class="cls-10" x1="257" y1="14.55" y2="14.55"/><line class="cls-10" x1="800" y1="14.55" x2="543" y2="14.55"/></g></g></svg>