<svg id="Lag_1" data-name="Lag 1" xmlns="http://www.w3.org/2000/svg" viewBox="0 0 479.73 428.15"><defs><style>.cls-1{fill:#ddd;}.cls-2{fill:#d67249;}.cls-3{fill:#d9a65b;}.cls-4{fill:#525f6e;}.cls-5{fill:#a6bb75;}.cls-6{fill:#aa82ad;}.cls-7{fill:#6796ad;}.cls-8{fill:#bfbcba;}.cls-9{fill:#d46d76;}</style></defs><path class="cls-1" d="M141.53,165.62H301a56.69,56.69,0,0,1,56.69,56.69V428.15a0,0,0,0,1,0,0H84.83a0,0,0,0,1,0,0V222.31A56.69,56.69,0,0,1,141.53,165.62Z"/><circle class="cls-1" cx="221.28" cy="88.23" r="88.23"/><rect class="cls-2" x="296.35" y="205.19" width="31.1" height="7"/><rect class="cls-3" x="337.28" y="205.19" width="74" height="7"/><rect class="cls-4" x="418.67" y="205.19" width="36" height="7"/><rect class="cls-5" x="462.48" y="205.19" width="8.75" height="7"/><rect class="cls-6" x="396.53" y="216.41" width="62.84" height="7"/><rect class="cls-7" x="327.46" y="216.41" width="61" height="7"/><rect class="cls-8" x="307.98" y="216.41" width="13.48" height="7"/><rect class="cls-5" x="363.28" y="227.63" width="85.8" height="7"/><rect class="cls-6" x="321.86" y="227.63" width="34.59" height="7"/><rect class="cls-4" x="334.87" y="238.86" width="44.72" height="7"/><rect class="cls-9" x="385.87" y="238.86" width="29" height="7"/><rect class="cls-3" x="421.74" y="238.86" width="13.27" height="7"/><rect class="cls-7" x="348.31" y="250.91" width="69.89" height="7"/><rect class="cls-5" x="366.52" y="262.96" width="20.66" height="7"/><rect class="cls-6" x="389.49" y="262.96" width="14.07" height="7"/><rect class="cls-8" x="380.67" y="275.02" width="7.79" height="7"/><rect class="cls-8" x="473.79" y="216.41" width="5.93" height="7"/><rect class="cls-3" x="467.05" y="227.63" width="12.67" height="7"/><rect class="cls-2" x="454.67" y="238.86" width="12.38" height="7"/><rect class="cls-4" x="471.23" y="238.86" width="8.5" height="7"/><rect class="cls-5" x="441.01" y="250.91" width="38.72" height="7"/><rect class="cls-7" x="427.51" y="261.96" width="27" height="7"/><rect class="cls-2" x="291.99" y="320.91" width="35" height="7"/><rect class="cls-3" x="336.81" y="320.91" width="74" height="7"/><rect class="cls-4" x="418.2" y="320.91" width="36" height="7"/><rect class="cls-5" x="462.01" y="320.91" width="14" height="7"/><rect class="cls-2" x="842.97" y="835.38" width="81.08" height="7" transform="translate(1279.65 1151.79) rotate(180)"/><rect class="cls-3" x="442.57" y="309.41" width="37.16" height="7"/><rect class="cls-4" x="310.83" y="309.41" width="37.48" height="7"/><rect class="cls-5" x="288.13" y="309.41" width="14.58" height="7"/><rect class="cls-6" x="459.36" y="261.96" width="20.36" height="7"/><rect class="cls-4" x="414.87" y="273.26" width="29.09" height="7"/><rect class="cls-9" x="447.39" y="273.26" width="31.85" height="7"/><rect class="cls-8" x="287.25" y="216.41" width="6.54" height="7"/><rect class="cls-3" x="287.25" y="227.63" width="12.37" height="7"/><rect class="cls-2" x="300.82" y="238.86" width="12.46" height="7"/><rect class="cls-4" x="287.25" y="238.86" width="9.1" height="7"/><rect class="cls-5" x="287.25" y="250.91" width="41.45" height="7"/><rect class="cls-7" x="314.25" y="261.96" width="28.9" height="7"/><rect class="cls-6" x="287.25" y="261.96" width="21.8" height="7"/><rect class="cls-4" x="325.54" y="273.26" width="30.92" height="7"/><rect class="cls-9" x="287.77" y="273.26" width="34.09" height="7"/><rect class="cls-7" x="287.79" y="297.31" width="75.49" height="7"/><rect class="cls-9" x="369.95" y="297.31" width="31.85" height="7"/><rect class="cls-5" x="406.72" y="297.09" width="72.52" height="7"/><rect class="cls-6" x="287.97" y="285.37" width="37.57" height="7"/><rect class="cls-5" x="329.93" y="285.37" width="36.59" height="7"/><rect class="cls-7" x="449.03" y="285.17" width="28.9" height="7"/><rect class="cls-8" x="406.18" y="285.37" width="37.06" height="7"/><rect class="cls-3" x="22.67" y="159.82" width="19.37" height="7"/><rect class="cls-4" x="10" y="171.28" width="22.36" height="7"/><rect class="cls-5" x="37.75" y="171.28" width="11.95" height="7"/><rect class="cls-6" x="27.7" y="182.74" width="26.49" height="7"/><rect class="cls-9" x="31.19" y="194.2" width="44.35" height="7"/><rect class="cls-8" x="4.71" y="182.74" width="17.96" height="7"/><rect class="cls-3" x="0.31" y="194.2" width="24.83" height="7"/><rect class="cls-5" y="205.66" width="63.68" height="7"/><rect class="cls-4" x="0.03" y="217.12" width="18" height="7"/><rect class="cls-3" x="3.05" y="228.58" width="19.37" height="7"/><rect class="cls-8" x="27.7" y="228.58" width="11.4" height="7"/><rect class="cls-5" x="19.67" y="240.04" width="24.05" height="7"/><rect class="cls-6" x="7.25" y="240.04" width="8.04" height="7"/><rect class="cls-4" x="13.7" y="251.5" width="38.3" height="7"/><rect class="cls-6" x="101.3" y="262.96" width="21.74" height="7"/><rect class="cls-9" x="21.35" y="262.96" width="29" height="7"/><rect class="cls-6" x="54.18" y="262.96" width="7.4" height="7"/><rect class="cls-5" x="30.12" y="274.42" width="51.16" height="7"/><rect class="cls-9" x="92.12" y="274.42" width="20.05" height="7"/><rect class="cls-7" x="117.35" y="274.42" width="18.64" height="7"/><rect class="cls-7" x="23.52" y="217.12" width="18.64" height="7"/><rect class="cls-6" x="39.1" y="285.88" width="61.23" height="7"/><rect class="cls-4" x="103.99" y="285.88" width="18" height="7"/><rect class="cls-8" x="125.17" y="285.88" width="16.66" height="7"/><rect class="cls-5" x="145.64" y="285.88" width="4.99" height="7"/><rect class="cls-7" x="49.7" y="297.34" width="35.25" height="7"/><rect class="cls-9" x="89.49" y="297.34" width="29" height="7"/><rect class="cls-5" x="63.66" y="308.8" width="69.83" height="7"/><rect class="cls-3" x="123.57" y="297.34" width="24.83" height="7"/><rect class="cls-6" x="75.26" y="320.26" width="49.9" height="7"/><rect class="cls-7" x="48.56" y="159.82" width="18.64" height="7"/><rect class="cls-8" x="53.45" y="171.28" width="17.6" height="7"/><rect class="cls-5" x="58.4" y="182.74" width="15.54" height="7"/></svg>