<?xml version="1.0" encoding="UTF-8"?>
<svg width="97px" height="54px" viewBox="0 0 97 54" version="1.1" xmlns="http://www.w3.org/2000/svg" xmlns:xlink="http://www.w3.org/1999/xlink">
    <!-- Generator: Sketch 41 (35326) - http://www.bohemiancoding.com/sketch -->
    <title>hoc_icon_color</title>
    <desc>Created with Sketch.</desc>
    <defs/>
    <g id="Graphic-Export" stroke="none" stroke-width="1" fill="none" fill-rule="evenodd">
        <g id="exports" transform="translate(-1074.000000, -1700.000000)">
            <g id="hoc_icon_color" transform="translate(1074.000000, 1700.000000)">
                <g id="Layer_1">
                    <rect id="Rectangle-path" fill="#D8A55B" x="50.050904" y="48.2528571" width="28.2396045" height="5.28979592"/>
                    <rect id="Rectangle-path" fill="#515F6D" x="21.8606215" y="38.6320408" width="38.7287571" height="5.28979592"/>
                    <rect id="Rectangle-path" fill="#D7734B" x="28.0751977" y="29.0167347" width="13.3827119" height="5.28979592"/>
                    <rect id="Rectangle-path" fill="#C0BCBB" x="46.2421469" y="29.0167347" width="6.20909605" height="5.28979592"/>
                    <rect id="Rectangle-path" fill="#6696AC" x="65.3736158" y="38.6320408" width="6.20909605" height="5.28979592"/>
                    <rect id="Rectangle-path" fill="#D36D75" x="76.3614689" y="38.6320408" width="20.5563277" height="5.28979592"/>
                    <rect id="Rectangle-path" fill="#AA81AC" x="57.23" y="29.0167347" width="25.3350847" height="5.28979592"/>
                    <rect id="Rectangle-path" fill="#A6BB75" x="60.5893785" y="19.3959184" width="15.7720904" height="5.28979592"/>
                    <rect id="Rectangle-path" fill="#6696AC" x="51.020904" y="9.78061224" width="12.4236723" height="5.28979592"/>
                    <rect id="Rectangle-path" fill="#D36D75" x="68.2288136" y="9.78061224" width="19.1205085" height="5.28979592"/>
                    <rect id="Rectangle-path" fill="#515F6D" x="21.8606215" y="19.3959184" width="33.95" height="5.28979592"/>
                    <rect id="Rectangle-path" fill="#C0BCBB" x="41.4579096" y="0.159795918" width="34.9035593" height="5.28979592"/>
                    <rect id="Rectangle-path" fill="#D8A55B" x="31.4236158" y="9.78061224" width="14.8130508" height="5.28979592"/>
                    <polygon id="Shape" fill="#515F6D" points="45.2666667 53.5426531 0.334293785 53.5426531 0.334293785 21.6 26.0584746 0.159795918 36.6736723 0.159795918 36.6736723 5.44959184 27.9546328 5.44959184 5.59531073 24.085102 5.59531073 48.2528571 45.2666667 48.2528571"/>
                </g>
            </g>
        </g>
    </g>
</svg>