<svg xmlns="http://www.w3.org/2000/svg" viewBox="0 0 439.73 433.33"><defs><style>.cls-1{fill:#c0bcbb;}.cls-2{fill:#d67249;}.cls-3{fill:#d9a65b;}.cls-4{fill:#525f6e;}.cls-5{fill:#a6bb75;}.cls-6{fill:#aa82ad;}.cls-7{fill:#6796ad;}.cls-8{fill:#bfbcba;}.cls-9{fill:#d46d76;}</style></defs><g id="Layer_2" data-name="Layer 2"><g id="Lag_1" data-name="Lag 1"><path class="cls-1" d="M135.27,170.8H281a56.69,56.69,0,0,1,56.69,56.69V433.33a0,0,0,0,1,0,0H78.58a0,0,0,0,1,0,0V227.5A56.69,56.69,0,0,1,135.27,170.8Z"/><ellipse class="cls-1" cx="208.15" cy="88.23" rx="83.79" ry="88.23"/><rect class="cls-2" x="256.35" y="210.37" width="31.1" height="7"/><rect class="cls-3" x="297.28" y="210.37" width="74" height="7"/><rect class="cls-4" x="378.67" y="210.37" width="36" height="7"/><rect class="cls-5" x="422.48" y="210.37" width="8.75" height="7"/><rect class="cls-6" x="356.53" y="221.59" width="62.84" height="7"/><rect class="cls-7" x="287.46" y="221.59" width="61" height="7"/><rect class="cls-8" x="267.98" y="221.59" width="13.48" height="7"/><rect class="cls-5" x="323.28" y="232.82" width="85.8" height="7"/><rect class="cls-6" x="281.86" y="232.82" width="34.59" height="7"/><rect class="cls-4" x="294.87" y="244.04" width="44.72" height="7"/><rect class="cls-9" x="345.87" y="244.04" width="29" height="7"/><rect class="cls-3" x="381.74" y="244.04" width="13.27" height="7"/><rect class="cls-7" x="308.31" y="256.09" width="69.89" height="7"/><rect class="cls-5" x="326.52" y="268.15" width="20.66" height="7"/><rect class="cls-6" x="349.49" y="268.15" width="14.07" height="7"/><rect class="cls-8" x="340.67" y="280.2" width="7.79" height="7"/><rect class="cls-8" x="433.79" y="221.59" width="5.93" height="7"/><rect class="cls-3" x="427.05" y="232.82" width="12.67" height="7"/><rect class="cls-2" x="414.67" y="244.04" width="12.38" height="7"/><rect class="cls-4" x="431.23" y="244.04" width="8.5" height="7"/><rect class="cls-5" x="401.01" y="256.09" width="38.72" height="7"/><rect class="cls-7" x="387.51" y="267.15" width="27" height="7"/><rect class="cls-2" x="251.99" y="326.09" width="35" height="7"/><rect class="cls-3" x="296.81" y="326.09" width="74" height="7"/><rect class="cls-4" x="378.2" y="326.09" width="36" height="7"/><rect class="cls-5" x="422.01" y="326.09" width="14" height="7"/><rect class="cls-2" x="315.59" y="314.59" width="81.08" height="7" transform="translate(712.26 636.19) rotate(180)"/><rect class="cls-3" x="402.57" y="314.59" width="37.16" height="7"/><rect class="cls-4" x="270.83" y="314.59" width="37.48" height="7"/><rect class="cls-5" x="248.13" y="314.59" width="14.58" height="7"/><rect class="cls-6" x="419.36" y="267.15" width="20.36" height="7"/><rect class="cls-4" x="374.87" y="278.44" width="29.09" height="7"/><rect class="cls-9" x="407.39" y="278.44" width="31.85" height="7"/><rect class="cls-8" x="247.25" y="221.59" width="6.54" height="7"/><rect class="cls-3" x="247.25" y="232.82" width="12.37" height="7"/><rect class="cls-2" x="260.82" y="244.04" width="12.46" height="7"/><rect class="cls-4" x="247.25" y="244.04" width="9.1" height="7"/><rect class="cls-5" x="247.25" y="256.09" width="41.45" height="7"/><rect class="cls-7" x="274.25" y="267.15" width="28.9" height="7"/><rect class="cls-6" x="247.25" y="267.15" width="21.8" height="7"/><rect class="cls-4" x="285.54" y="278.44" width="30.92" height="7"/><rect class="cls-9" x="247.77" y="278.44" width="34.09" height="7"/><rect class="cls-7" x="247.79" y="302.5" width="75.49" height="7"/><rect class="cls-9" x="329.95" y="302.5" width="31.85" height="7"/><rect class="cls-5" x="366.72" y="302.27" width="72.52" height="7"/><rect class="cls-6" x="247.97" y="290.55" width="37.57" height="7"/><rect class="cls-5" x="289.93" y="290.55" width="36.59" height="7"/><rect class="cls-7" x="409.03" y="290.36" width="28.9" height="7"/><rect class="cls-8" x="366.18" y="290.55" width="37.06" height="7"/><rect class="cls-3" x="22.67" y="165.01" width="19.37" height="7"/><rect class="cls-4" x="10" y="176.47" width="22.36" height="7"/><rect class="cls-5" x="37.75" y="176.47" width="11.95" height="7"/><rect class="cls-6" x="27.7" y="187.93" width="26.49" height="7"/><rect class="cls-9" x="31.19" y="199.39" width="44.35" height="7"/><rect class="cls-8" x="4.71" y="187.93" width="17.96" height="7"/><rect class="cls-3" x="0.31" y="199.39" width="24.83" height="7"/><rect class="cls-5" y="210.85" width="63.68" height="7"/><rect class="cls-4" x="0.03" y="222.31" width="18" height="7"/><rect class="cls-3" x="3.05" y="233.77" width="19.37" height="7"/><rect class="cls-8" x="27.7" y="233.77" width="11.4" height="7"/><rect class="cls-5" x="19.67" y="245.23" width="24.05" height="7"/><rect class="cls-6" x="7.25" y="245.23" width="8.04" height="7"/><rect class="cls-4" x="13.7" y="256.69" width="38.3" height="7"/><rect class="cls-6" x="101.3" y="268.15" width="21.74" height="7"/><rect class="cls-9" x="21.35" y="268.15" width="29" height="7"/><rect class="cls-6" x="54.18" y="268.15" width="7.4" height="7"/><rect class="cls-5" x="30.12" y="279.61" width="51.16" height="7"/><rect class="cls-9" x="92.12" y="279.61" width="20.05" height="7"/><rect class="cls-7" x="117.35" y="279.61" width="18.64" height="7"/><rect class="cls-7" x="23.52" y="222.31" width="18.64" height="7"/><rect class="cls-6" x="39.1" y="291.07" width="61.23" height="7"/><rect class="cls-4" x="103.99" y="291.07" width="18" height="7"/><rect class="cls-8" x="125.17" y="291.07" width="16.66" height="7"/><rect class="cls-5" x="145.64" y="291.07" width="4.99" height="7"/><rect class="cls-7" x="49.7" y="302.53" width="35.25" height="7"/><rect class="cls-9" x="89.49" y="302.53" width="29" height="7"/><rect class="cls-5" x="63.66" y="313.99" width="69.83" height="7"/><rect class="cls-3" x="123.57" y="302.53" width="24.83" height="7"/><rect class="cls-6" x="75.26" y="325.45" width="49.9" height="7"/><rect class="cls-7" x="48.56" y="165.01" width="18.64" height="7"/><rect class="cls-8" x="53.45" y="176.47" width="17.6" height="7"/><rect class="cls-5" x="58.4" y="187.93" width="15.54" height="7"/></g></g></svg>