<?xml version="1.0" encoding="utf-8"?>
<!-- Generator: Adobe Illustrator 25.2.0, SVG Export Plug-In . SVG Version: 6.00 Build 0)  -->
<svg version="1.1" xmlns="http://www.w3.org/2000/svg" xmlns:xlink="http://www.w3.org/1999/xlink" x="0px" y="0px"
	 viewBox="0 0 500 500" style="enable-background:new 0 0 500 500;" xml:space="preserve">
<style type="text/css">
	.st0{fill:#D67249;}
	.st1{fill:#BFBCBA;}
	.st2{fill:#515E6D;}
	.st3{fill:#AA82AD;}
	.st4{fill:#A5BA74;}
	.st5{fill:#D36D75;}
	.st6{fill:#D8A55B;}
	.st7{fill:#6696AD;}
</style>
<g id="Layer_1">
	<rect x="178.8" y="169.5" class="st0" width="33" height="7"/>
	<rect x="199.8" y="230.5" class="st1" width="119" height="7"/>
</g>
<g id="Layer_2">
	<rect x="160.8" y="215.5" class="st1" width="99" height="7"/>
	<rect x="320.8" y="215.5" class="st1" width="39.5" height="7"/>
	<rect x="205.8" y="308.5" class="st2" width="31.5" height="7"/>
</g>
<g id="Layer_3">
	<rect x="139.8" y="169.5" class="st3" width="24" height="7"/>
	<rect x="274.8" y="215.5" class="st4" width="31" height="7"/>
	<rect x="183.8" y="261.5" class="st4" width="23" height="7"/>
</g>
<g id="Layer_4">
	<rect x="242.8" y="153.5" class="st3" width="68" height="7"/>
	<rect x="299.8" y="184.5" class="st3" width="48.5" height="7"/>
	<rect x="224.8" y="292.5" class="st2" width="5.5" height="7"/>
</g>
<g id="Layer_5">
	<rect x="154.8" y="200.5" class="st4" width="9" height="7"/>
	<rect x="221.8" y="261.5" class="st5" width="13.5" height="7"/>
	<rect x="220.8" y="339.5" class="st6" width="31" height="7"/>
</g>
<g id="Layer_6">
	<rect x="313.8" y="122.5" class="st7" width="6.5" height="7"/>
	<rect x="146.8" y="184.5" class="st3" width="69" height="7"/>
	<rect x="255.8" y="369.5" class="st1" width="11" height="7"/>
</g>
<g id="Layer_7">
	<rect x="292.8" y="138.5" class="st7" width="34.5" height="7"/>
	<rect x="218.8" y="200.5" class="st6" width="136.5" height="7"/>
	<rect x="238.8" y="246.5" class="st7" width="14" height="7"/>
</g>
<g id="Layer_8">
	<rect x="159.8" y="153.5" class="st5" width="5.5" height="7"/>
	<rect x="178.8" y="200.5" class="st6" width="25" height="7"/>
	<rect x="212.8" y="323.5" class="st4" width="7" height="7"/>
</g>
<g id="Layer_9">
	<rect x="230.8" y="184.5" class="st2" width="54" height="7"/>
	<rect x="333.8" y="230.5" class="st5" width="17.5" height="7"/>
	<rect x="227.8" y="354.5" class="st5" width="32" height="7"/>
</g>
<g id="Layer_10">
	<rect x="205.8" y="138.5" class="st5" width="72" height="7"/>
	<rect x="264.8" y="169.5" class="st5" width="76.5" height="7"/>
	<rect x="197.8" y="292.5" class="st0" width="12" height="7"/>
</g>
<g id="Layer_11">
	<rect x="308.8" y="107.5" class="st4" width="5.5" height="7"/>
	<rect x="180.8" y="153.5" class="st3" width="47" height="7"/>
	<rect x="190.8" y="277.5" class="st6" width="32.5" height="7"/>
</g>
<g id="Layer_12">
	<rect x="226.8" y="169.5" class="st3" width="23" height="7"/>
	<rect x="168.8" y="230.5" class="st1" width="16" height="7"/>
	<rect x="234.8" y="323.5" class="st4" width="9.5" height="7"/>
</g>
<g id="Layer_13">
	<rect x="292.8" y="122.5" class="st2" width="6" height="7"/>
	<rect x="267.8" y="246.5" class="st3" width="25.5" height="7"/>
	<rect x="234.8" y="369.5" class="st3" width="6" height="7"/>
</g>
<g id="Layer_14">
	<rect x="325.8" y="153.5" class="st1" width="8.5" height="7"/>
	<rect x="175.8" y="246.5" class="st5" width="48" height="7"/>
	<rect x="242.8" y="385.5" class="st6" width="8" height="7"/>
</g>
</svg>
