<?xml version="1.0" encoding="utf-8"?>
<!-- Generator: Adobe Illustrator 25.2.0, SVG Export Plug-In . SVG Version: 6.00 Build 0)  -->
<svg version="1.1" xmlns="http://www.w3.org/2000/svg" xmlns:xlink="http://www.w3.org/1999/xlink" x="0px" y="0px"
	 viewBox="0 0 500 500" style="enable-background:new 0 0 500 500;" xml:space="preserve">
<style type="text/css">
	.st0{fill:#515E6D;}
	.st1{fill:#A5BA74;}
	.st2{fill:#D36D75;}
	.st3{fill:#D8A55B;}
	.st4{fill:#BFBCBA;}
	.st5{fill:#6696AD;}
	.st6{fill:#AA82AD;}
	.st7{fill:#D67249;}
</style>
<g id="Layer_1">
	<rect x="237" y="169.5" class="st0" width="36" height="7"/>
	<rect x="305" y="261.5" class="st1" width="29" height="7"/>
	<rect x="184.5" y="308.5" class="st2" width="34.5" height="7"/>
</g>
<g id="Layer_2">
	<rect x="164" y="169.5" class="st3" width="58" height="7"/>
	<rect x="190" y="246.5" class="st4" width="23" height="7"/>
	<rect x="271" y="308.5" class="st5" width="65" height="7"/>
</g>
<g id="Layer_3">
	<rect x="191" y="138.5" class="st4" width="43" height="7"/>
	<rect x="164" y="215.5" class="st5" width="27" height="7"/>
	<rect x="161" y="293" class="st6" width="21" height="7"/>
</g>
<g id="Layer_4">
	<rect x="228" y="246.5" class="st1" width="96" height="7"/>
	<rect x="260" y="278" class="st1" width="27" height="7"/>
	<rect x="161" y="339.5" class="st0" width="35.5" height="7"/>
</g>
<g id="Layer_5">
	<rect x="233" y="122.5" class="st1" width="14" height="7"/>
	<rect x="288" y="169.5" class="st1" width="38" height="7"/>
	<rect x="234" y="308.5" class="st1" width="22" height="7"/>
</g>
<g id="Layer_6">
	<rect x="257" y="230.5" class="st7" width="14" height="7"/>
	<rect x="161" y="308.5" class="st3" width="8.5" height="7"/>
	<rect x="233" y="385.5" class="st6" width="11.5" height="7"/>
</g>
<g id="Layer_7">
	<rect x="172" y="153.5" class="st3" width="45" height="7"/>
	<rect x="298" y="185" class="st3" width="22" height="7"/>
	<rect x="306" y="323.5" class="st0" width="23" height="7"/>
</g>
<g id="Layer_8">
	<rect x="270" y="153.5" class="st1" width="63" height="7"/>
	<rect x="273" y="293" class="st3" width="43" height="7"/>
	<rect x="233" y="369.5" class="st5" width="35" height="7"/>
</g>
<g id="Layer_9">
	<rect x="182" y="201" class="st0" width="53" height="7"/>
	<rect x="331" y="293" class="st6" width="8" height="7"/>
	<rect x="204" y="354.5" class="st3" width="21.5" height="7"/>
</g>
<g id="Layer_10">
	<rect x="233" y="107.5" class="st7" width="35" height="7"/>
	<rect x="212" y="185" class="st0" width="17" height="7"/>
	<rect x="302" y="278" class="st6" width="37" height="7"/>
</g>
<g id="Layer_11">
	<rect x="262" y="122.5" class="st3" width="6" height="7"/>
	<rect x="221" y="261.5" class="st2" width="29" height="7"/>
	<rect x="161" y="323.5" class="st5" width="61" height="7"/>
</g>
<g id="Layer_12">
	<rect x="161" y="185" class="st0" width="36" height="7"/>
	<rect x="286" y="230.5" class="st6" width="16" height="7"/>
	<rect x="259.5" y="385.5" class="st2" width="8.5" height="7"/>
</g>
<g id="Layer_13">
	<rect x="161" y="201" class="st7" width="6" height="7"/>
	<rect x="265" y="261.5" class="st2" width="25" height="7"/>
	<rect x="237" y="323.5" class="st0" width="54" height="7"/>
</g>
<g id="Layer_14">
	<rect x="232" y="153.5" class="st7" width="23" height="7"/>
	<rect x="206" y="215.5" class="st6" width="60" height="7"/>
	<rect x="240.5" y="354.5" class="st5" width="39.5" height="7"/>
</g>
<g id="Layer_15">
	<rect x="249" y="138.5" class="st3" width="74" height="7"/>
	<rect x="172" y="230.5" class="st6" width="70" height="7"/>
	<rect x="211.5" y="339.5" class="st4" width="102.5" height="7"/>
</g>
</svg>
