<?xml version="1.0" encoding="utf-8"?>
<!-- Generator: Adobe Illustrator 25.2.0, SVG Export Plug-In . SVG Version: 6.00 Build 0)  -->
<svg version="1.1" xmlns="http://www.w3.org/2000/svg" xmlns:xlink="http://www.w3.org/1999/xlink" x="0px" y="0px"
	 viewBox="0 0 500 500" style="enable-background:new 0 0 500 500;" xml:space="preserve">
<style type="text/css">
	.st0{fill:#515E6D;}
	.st1{fill:#A5BA74;}
	.st2{fill:#D8A55B;}
	.st3{fill:#D67249;}
	.st4{fill:#D36D75;}
	.st5{fill:#BFBCBA;}
	.st6{fill:#AA82AD;}
	.st7{fill:#6696AD;}
</style>
<g id="Layer_1">
	<rect x="192" y="308.2" class="st0" width="25.5" height="7"/>
	<rect x="146.5" y="308.8" class="st1" width="36.5" height="7"/>
</g>
<g id="Layer_2">
	<rect x="192" y="246.2" class="st2" width="217" height="7"/>
	<rect x="274" y="369.2" class="st1" width="103" height="7"/>
</g>
<g id="Layer_3">
	<rect x="233" y="200.2" class="st3" width="40.5" height="7"/>
	<rect x="91" y="292.8" class="st4" width="59.5" height="7"/>
	<rect x="126" y="323.8" class="st0" width="32" height="7"/>
</g>
<g id="Layer_4">
	<rect x="265.5" y="230.2" class="st1" width="69.5" height="7"/>
	<rect x="366" y="261.2" class="st4" width="36" height="7"/>
	<rect x="112" y="277.8" class="st2" width="12" height="7"/>
</g>
<g id="Layer_5">
	<rect x="241" y="184.2" class="st0" width="55" height="7"/>
	<rect x="350" y="230.2" class="st5" width="14" height="7"/>
	<rect x="91" y="354.8" class="st6" width="14" height="7"/>
</g>
<g id="Layer_6">
	<rect x="251" y="107.2" class="st7" width="25" height="7"/>
	<rect x="303.5" y="292.2" class="st6" width="28.5" height="7"/>
	<rect x="374" y="323.2" class="st0" width="21" height="7"/>
</g>
<g id="Layer_7">
	<rect x="330" y="354.2" class="st6" width="49" height="7"/>
	<rect x="91" y="261.8" class="st2" width="44.5" height="7"/>
	<rect x="169" y="369.8" class="st7" width="14" height="7"/>
</g>
<g id="Layer_8">
	<rect x="91" y="246.8" class="st6" width="33.5" height="7"/>
	<rect x="139" y="277.8" class="st5" width="44.1" height="7"/>
	<rect x="91" y="323.8" class="st7" width="20" height="7"/>
</g>
<g id="Layer_9">
	<rect x="379" y="230.2" class="st4" width="30" height="7"/>
	<rect x="223.5" y="354.2" class="st6" width="91.5" height="7"/>
	<rect x="96" y="231.8" class="st5" width="14.5" height="7"/>
</g>
<g id="Layer_10">
	<rect x="285" y="138.2" class="st0" width="11" height="7"/>
	<rect x="288.5" y="200.2" class="st5" width="5.5" height="7"/>
	<rect x="301" y="323.2" class="st4" width="58" height="7"/>
</g>
<g id="Layer_11">
	<rect x="267.5" y="323.2" class="st6" width="18.5" height="7"/>
	<rect x="139.5" y="246.8" class="st1" width="43.5" height="7"/>
	<rect x="150.5" y="261.8" class="st7" width="32.5" height="7"/>
</g>
<g id="Layer_12">
	<rect x="249" y="153.2" class="st1" width="48" height="7"/>
	<rect x="222" y="215.2" class="st5" width="64.5" height="7"/>
	<rect x="232.5" y="308.2" class="st7" width="159.5" height="7"/>
</g>
<g id="Layer_13">
	<rect x="267.5" y="169.2" class="st2" width="30.5" height="7"/>
	<rect x="192" y="261.2" class="st4" width="19.5" height="7"/>
	<rect x="96" y="385.8" class="st2" width="15" height="7"/>
</g>
<g id="Layer_14">
	<rect x="347" y="215.2" class="st6" width="41" height="7"/>
	<rect x="263.5" y="277.2" class="st1" width="143.5" height="7"/>
	<rect x="170" y="339.8" class="st7" width="13" height="7"/>
</g>
<g id="Layer_15">
	<rect x="252" y="122.2" class="st0" width="5" height="7"/>
	<rect x="266.5" y="261.2" class="st1" width="17.5" height="7"/>
	<rect x="126" y="385.8" class="st2" width="51" height="7"/>
</g>
<g id="Layer_16">
	<rect x="301.5" y="215.2" class="st0" width="30.5" height="7"/>
	<rect x="192" y="292.2" class="st5" width="96.5" height="7"/>
	<rect x="125.5" y="231.8" class="st6" width="28.5" height="7"/>
</g>
<g id="Layer_17">
	<rect x="251" y="138.2" class="st0" width="19" height="7"/>
	<rect x="347" y="292.2" class="st4" width="38" height="7"/>
	<rect x="192" y="339.2" class="st0" width="116" height="7"/>
</g>
<g id="Layer_18">
	<rect x="222.5" y="277.2" class="st1" width="26" height="7"/>
	<rect x="323" y="339.2" class="st7" width="69" height="7"/>
	<rect x="91" y="339.8" class="st2" width="64" height="7"/>
</g>
<g id="Layer_19">
	<rect x="192" y="323.2" class="st1" width="60.5" height="7"/>
	<rect x="232" y="385.2" class="st7" width="86" height="7"/>
	<rect x="169" y="231.8" class="st1" width="8" height="7"/>
</g>
<g id="Layer_20">
	<rect x="236.5" y="230.2" class="st3" width="14" height="7"/>
	<rect x="192" y="277.2" class="st6" width="15.5" height="7"/>
	<rect x="91" y="308.8" class="st1" width="40.5" height="7"/>
</g>
<g id="Layer_21">
	<rect x="246" y="169.2" class="st7" width="6.5" height="7"/>
	<rect x="192" y="369.2" class="st1" width="67" height="7"/>
	<rect x="173" y="323.8" class="st7" width="10" height="7"/>
</g>
<g id="Layer_22">
	<rect x="226.5" y="261.2" class="st2" width="25" height="7"/>
	<rect x="210" y="385.2" class="st0" width="7" height="7"/>
	<rect x="120" y="354.8" class="st7" width="63" height="7"/>
</g>
<g id="Layer_23">
	<rect x="272" y="122.2" class="st3" width="19" height="7"/>
	<rect x="400" y="292.2" class="st3" width="8" height="7"/>
	<rect x="192" y="354.2" class="st1" width="16.5" height="7"/>
</g>
<g id="Layer_24">
	<rect x="208" y="230.2" class="st5" width="13.5" height="7"/>
	<rect x="333" y="385.2" class="st0" width="32" height="7"/>
	<rect x="91" y="277.8" class="st2" width="6" height="7"/>
</g>
<g id="Layer_25">
	<rect x="299" y="261.2" class="st2" width="52" height="7"/>
	<rect x="165.5" y="292.8" class="st4" width="17.5" height="7"/>
	<rect x="91" y="369.8" class="st1" width="63" height="7"/>
</g>
</svg>
