<svg xmlns="http://www.w3.org/2000/svg" viewBox="0 0 178 285"><defs><style>.cls-1{fill:#515e6d;}.cls-2{fill:#a5ba74;}.cls-3{fill:#d36d75;}.cls-4{fill:#d8a55b;}.cls-5{fill:#bfbcba;}.cls-6{fill:#6696ad;}.cls-7{fill:#aa82ad;}.cls-8{fill:#d67249;}</style></defs><g id="Layer_2" data-name="Layer 2"><g id="Layer_1-2" data-name="Layer 1"><g id="Layer_1-3" data-name="Layer 1"><rect class="cls-1" x="76" y="62" width="36" height="7"/><rect class="cls-2" x="144" y="154" width="29" height="7"/><rect class="cls-3" x="23.5" y="201" width="34.5" height="7"/></g><g id="Layer_2-2" data-name="Layer 2"><rect class="cls-4" x="3" y="62" width="58" height="7"/><rect class="cls-5" x="29" y="139" width="23" height="7"/><rect class="cls-6" x="110" y="201" width="65" height="7"/></g><g id="Layer_3" data-name="Layer 3"><rect class="cls-5" x="30" y="31" width="43" height="7"/><rect class="cls-6" x="3" y="108" width="27" height="7"/><rect class="cls-7" y="185.5" width="21" height="7"/></g><g id="Layer_4" data-name="Layer 4"><rect class="cls-2" x="67" y="139" width="96" height="7"/><rect class="cls-2" x="99" y="170.5" width="27" height="7"/><rect class="cls-1" y="232" width="35.5" height="7"/></g><g id="Layer_5" data-name="Layer 5"><rect class="cls-2" x="72" y="15" width="14" height="7"/><rect class="cls-2" x="127" y="62" width="38" height="7"/><rect class="cls-2" x="73" y="201" width="22" height="7"/></g><g id="Layer_6" data-name="Layer 6"><rect class="cls-8" x="96" y="123" width="14" height="7"/><rect class="cls-4" y="201" width="8.5" height="7"/><rect class="cls-7" x="72" y="278" width="11.5" height="7"/></g><g id="Layer_7" data-name="Layer 7"><rect class="cls-4" x="11" y="46" width="45" height="7"/><rect class="cls-4" x="137" y="77.5" width="22" height="7"/><rect class="cls-1" x="145" y="216" width="23" height="7"/></g><g id="Layer_8" data-name="Layer 8"><rect class="cls-2" x="109" y="46" width="63" height="7"/><rect class="cls-4" x="112" y="185.5" width="43" height="7"/><rect class="cls-6" x="72" y="262" width="35" height="7"/></g><g id="Layer_9" data-name="Layer 9"><rect class="cls-1" x="21" y="93.5" width="53" height="7"/><rect class="cls-7" x="170" y="185.5" width="8" height="7"/><rect class="cls-4" x="43" y="247" width="21.5" height="7"/></g><g id="Layer_10" data-name="Layer 10"><rect class="cls-8" x="72" width="35" height="7"/><rect class="cls-1" x="51" y="77.5" width="17" height="7"/><rect class="cls-7" x="141" y="170.5" width="37" height="7"/></g><g id="Layer_11" data-name="Layer 11"><rect class="cls-4" x="101" y="15" width="6" height="7"/><rect class="cls-3" x="60" y="154" width="29" height="7"/><rect class="cls-6" y="216" width="61" height="7"/></g><g id="Layer_12" data-name="Layer 12"><rect class="cls-1" y="77.5" width="36" height="7"/><rect class="cls-7" x="125" y="123" width="16" height="7"/><rect class="cls-3" x="98.5" y="278" width="8.5" height="7"/></g><g id="Layer_13" data-name="Layer 13"><rect class="cls-8" y="93.5" width="6" height="7"/><rect class="cls-3" x="104" y="154" width="25" height="7"/><rect class="cls-1" x="76" y="216" width="54" height="7"/></g><g id="Layer_14" data-name="Layer 14"><rect class="cls-8" x="71" y="46" width="23" height="7"/><rect class="cls-7" x="45" y="108" width="60" height="7"/><rect class="cls-6" x="79.5" y="247" width="39.5" height="7"/></g><g id="Layer_15" data-name="Layer 15"><rect class="cls-4" x="88" y="31" width="74" height="7"/><rect class="cls-7" x="11" y="123" width="70" height="7"/><rect class="cls-5" x="50.5" y="232" width="102.5" height="7"/></g></g></g></svg>