<svg xmlns="http://www.w3.org/2000/svg" viewBox="0 0 318 285.6"><defs><style>.cls-1{fill:#515e6d;}.cls-2{fill:#a5ba74;}.cls-3{fill:#d8a55b;}.cls-4{fill:#d67249;}.cls-5{fill:#d36d75;}.cls-6{fill:#bfbcba;}.cls-7{fill:#aa82ad;}.cls-8{fill:#6696ad;}</style></defs><g id="Layer_2" data-name="Layer 2"><g id="Layer_1-2" data-name="Layer 1"><g id="Layer_1-3" data-name="Layer 1"><rect class="cls-1" x="101" y="201" width="25.5" height="7"/><rect class="cls-2" x="55.5" y="201.6" width="36.5" height="7"/></g><g id="Layer_2-2" data-name="Layer 2"><rect class="cls-3" x="101" y="139" width="217" height="7"/><rect class="cls-2" x="183" y="262" width="103" height="7"/></g><g id="Layer_3" data-name="Layer 3"><rect class="cls-4" x="142" y="93" width="40.5" height="7"/><rect class="cls-5" y="185.6" width="59.5" height="7"/><rect class="cls-1" x="35" y="216.6" width="32" height="7"/></g><g id="Layer_4" data-name="Layer 4"><rect class="cls-2" x="174.5" y="123" width="69.5" height="7"/><rect class="cls-5" x="275" y="154" width="36" height="7"/><rect class="cls-3" x="21" y="170.6" width="12" height="7"/></g><g id="Layer_5" data-name="Layer 5"><rect class="cls-1" x="150" y="77" width="55" height="7"/><rect class="cls-6" x="259" y="123" width="14" height="7"/><rect class="cls-7" y="247.6" width="14" height="7"/></g><g id="Layer_6" data-name="Layer 6"><rect class="cls-8" x="160" width="25" height="7"/><rect class="cls-7" x="212.5" y="185" width="28.5" height="7"/><rect class="cls-1" x="283" y="216" width="21" height="7"/></g><g id="Layer_7" data-name="Layer 7"><rect class="cls-7" x="239" y="247" width="49" height="7"/><rect class="cls-3" y="154.6" width="44.5" height="7"/><rect class="cls-8" x="78" y="262.6" width="14" height="7"/></g><g id="Layer_9" data-name="Layer 9"><rect class="cls-5" x="288" y="123" width="30" height="7"/><rect class="cls-7" x="132.5" y="247" width="91.5" height="7"/><rect class="cls-6" x="5" y="124.6" width="14.5" height="7"/></g><g id="Layer_10" data-name="Layer 10"><rect class="cls-1" x="194" y="31" width="11" height="7"/><rect class="cls-6" x="197.5" y="93" width="5.5" height="7"/><rect class="cls-5" x="210" y="216" width="58" height="7"/></g><g id="Layer_11" data-name="Layer 11"><rect class="cls-7" x="176.5" y="216" width="18.5" height="7"/><rect class="cls-2" x="48.5" y="139.6" width="43.5" height="7"/><rect class="cls-8" x="59.5" y="154.6" width="32.5" height="7"/></g><g id="Layer_12" data-name="Layer 12"><rect class="cls-2" x="158" y="46" width="48" height="7"/><rect class="cls-6" x="131" y="108" width="64.5" height="7"/><rect class="cls-8" x="141.5" y="201" width="159.5" height="7"/></g><g id="Layer_13" data-name="Layer 13"><rect class="cls-3" x="176.5" y="62" width="30.5" height="7"/><rect class="cls-5" x="101" y="154" width="19.5" height="7"/><rect class="cls-3" x="5" y="278.6" width="15" height="7"/></g><g id="Layer_14" data-name="Layer 14"><rect class="cls-7" x="256" y="108" width="41" height="7"/><rect class="cls-2" x="172.5" y="170" width="143.5" height="7"/><rect class="cls-8" x="79" y="232.6" width="13" height="7"/></g><g id="Layer_15" data-name="Layer 15"><rect class="cls-1" x="161" y="15" width="5" height="7"/><rect class="cls-2" x="175.5" y="154" width="17.5" height="7"/><rect class="cls-3" x="35" y="278.6" width="51" height="7"/></g><g id="Layer_16" data-name="Layer 16"><rect class="cls-1" x="210.5" y="108" width="30.5" height="7"/><rect class="cls-6" x="101" y="185" width="96.5" height="7"/><rect class="cls-7" x="34.5" y="124.6" width="28.5" height="7"/></g><g id="Layer_17" data-name="Layer 17"><rect class="cls-1" x="160" y="31" width="19" height="7"/><rect class="cls-5" x="256" y="185" width="38" height="7"/><rect class="cls-1" x="101" y="232" width="116" height="7"/></g><g id="Layer_18" data-name="Layer 18"><rect class="cls-2" x="131.5" y="170" width="26" height="7"/><rect class="cls-8" x="232" y="232" width="69" height="7"/><rect class="cls-3" y="232.6" width="64" height="7"/></g><g id="Layer_19" data-name="Layer 19"><rect class="cls-2" x="101" y="216" width="60.5" height="7"/><rect class="cls-8" x="141" y="278" width="86" height="7"/><rect class="cls-2" x="78" y="124.6" width="8" height="7"/></g><g id="Layer_20" data-name="Layer 20"><rect class="cls-4" x="145.5" y="123" width="14" height="7"/><rect class="cls-7" x="101" y="170" width="15.5" height="7"/><rect class="cls-2" y="201.6" width="40.5" height="7"/></g><g id="Layer_21" data-name="Layer 21"><rect class="cls-8" x="155" y="62" width="6.5" height="7"/><rect class="cls-2" x="101" y="262" width="67" height="7"/><rect class="cls-8" x="82" y="216.6" width="10" height="7"/></g><g id="Layer_22" data-name="Layer 22"><rect class="cls-3" x="135.5" y="154" width="25" height="7"/><rect class="cls-1" x="119" y="278" width="7" height="7"/><rect class="cls-8" x="29" y="247.6" width="63" height="7"/></g><g id="Layer_23" data-name="Layer 23"><rect class="cls-4" x="181" y="15" width="19" height="7"/><rect class="cls-4" x="309" y="185" width="8" height="7"/><rect class="cls-2" x="101" y="247" width="16.5" height="7"/></g><g id="Layer_24" data-name="Layer 24"><rect class="cls-6" x="117" y="123" width="13.5" height="7"/><rect class="cls-1" x="242" y="278" width="32" height="7"/><rect class="cls-3" y="170.6" width="6" height="7"/></g><g id="Layer_25" data-name="Layer 25"><rect class="cls-3" x="208" y="154" width="52" height="7"/><rect class="cls-5" x="74.5" y="185.6" width="17.5" height="7"/><rect class="cls-2" y="262.6" width="63" height="7"/></g></g></g></svg>