<svg xmlns="http://www.w3.org/2000/svg" viewBox="0 0 220.5 285"><defs><style>.cls-1{fill:#d67249;}.cls-2{fill:#bfbcba;}.cls-3{fill:#515e6d;}.cls-4{fill:#aa82ad;}.cls-5{fill:#a5ba74;}.cls-6{fill:#d36d75;}.cls-7{fill:#d8a55b;}.cls-8{fill:#6696ad;}</style></defs><g id="Layer_2" data-name="Layer 2"><g id="Layer_1-2" data-name="Layer 1"><g id="Layer_1-3" data-name="Layer 1"><rect class="cls-1" x="39" y="62" width="33" height="7"/><rect class="cls-2" x="60" y="123" width="119" height="7"/></g><g id="Layer_2-2" data-name="Layer 2"><rect class="cls-2" x="21" y="108" width="99" height="7"/><rect class="cls-2" x="181" y="108" width="39.5" height="7"/><rect class="cls-3" x="66" y="201" width="31.5" height="7"/></g><g id="Layer_3" data-name="Layer 3"><rect class="cls-4" y="62" width="24" height="7"/><rect class="cls-5" x="135" y="108" width="31" height="7"/><rect class="cls-5" x="44" y="154" width="23" height="7"/></g><g id="Layer_4" data-name="Layer 4"><rect class="cls-4" x="103" y="46" width="68" height="7"/><rect class="cls-4" x="160" y="77" width="48.5" height="7"/><rect class="cls-3" x="85" y="185" width="5.5" height="7"/></g><g id="Layer_5" data-name="Layer 5"><rect class="cls-5" x="15" y="93" width="9" height="7"/><rect class="cls-6" x="82" y="154" width="13.5" height="7"/><rect class="cls-7" x="81" y="232" width="31" height="7"/></g><g id="Layer_6" data-name="Layer 6"><rect class="cls-8" x="174" y="15" width="6.5" height="7"/><rect class="cls-4" x="7" y="77" width="69" height="7"/><rect class="cls-2" x="116" y="262" width="11" height="7"/></g><g id="Layer_7" data-name="Layer 7"><rect class="cls-8" x="153" y="31" width="34.5" height="7"/><rect class="cls-7" x="79" y="93" width="136.5" height="7"/><rect class="cls-8" x="99" y="139" width="14" height="7"/></g><g id="Layer_8" data-name="Layer 8"><rect class="cls-6" x="20" y="46" width="5.5" height="7"/><rect class="cls-7" x="39" y="93" width="25" height="7"/><rect class="cls-5" x="73" y="216" width="7" height="7"/></g><g id="Layer_9" data-name="Layer 9"><rect class="cls-3" x="91" y="77" width="54" height="7"/><rect class="cls-6" x="194" y="123" width="17.5" height="7"/><rect class="cls-6" x="88" y="247" width="32" height="7"/></g><g id="Layer_10" data-name="Layer 10"><rect class="cls-6" x="66" y="31" width="72" height="7"/><rect class="cls-6" x="125" y="62" width="76.5" height="7"/><rect class="cls-1" x="58" y="185" width="12" height="7"/></g><g id="Layer_11" data-name="Layer 11"><rect class="cls-5" x="169" width="5.5" height="7"/><rect class="cls-4" x="41" y="46" width="47" height="7"/><rect class="cls-7" x="51" y="170" width="32.5" height="7"/></g><g id="Layer_12" data-name="Layer 12"><rect class="cls-4" x="87" y="62" width="23" height="7"/><rect class="cls-2" x="29" y="123" width="16" height="7"/><rect class="cls-5" x="95" y="216" width="9.5" height="7"/></g><g id="Layer_13" data-name="Layer 13"><rect class="cls-3" x="153" y="15" width="6" height="7"/><rect class="cls-4" x="128" y="139" width="25.5" height="7"/><rect class="cls-4" x="95" y="262" width="6" height="7"/></g><g id="Layer_14" data-name="Layer 14"><rect class="cls-2" x="186" y="46" width="8.5" height="7"/><rect class="cls-6" x="36" y="139" width="48" height="7"/><rect class="cls-7" x="103" y="278" width="8" height="7"/></g></g></g></svg>